<?xml version="1.0"?><svg xmlns="http://www.w3.org/2000/svg" xmlns:xlink="http://www.w3.org/1999/xlink" version="1.1" viewBox="0 0 512 512" style="enable-background:new 0 0 512 512;" xml:space="preserve"><g id="_x35_0_x2C__Saint_Patrick_x2C__gold_pot_x2C__luck_x2C__festival_x2C__cultures_x2C__irish"><g><g><path style="fill:#E6C34F;" d="M450.135,124.031c-0.064,22.786-0.042,14.927-0.047,16.627h-142.42L241.39,50.989     c6.202-24.094,32.65-36.525,55.001-26.541c12.25-13.881,34.846-10.078,41.871,7.06c5.51-12.1,17.7-20.521,31.861-20.521     c19.33,0,35.001,15.67,35.001,35.001c14.601,0,25.839,12.394,24.961,26.451C452.123,78.954,461.826,104.595,450.135,124.031z"/><path style="fill:#8DCDF2;" d="M202.099,52.099V81.99L33.135,68.999L11.874,47.739C34.755,22.118,68.056,5.988,105.116,5.988     C144.237,5.988,179.178,23.958,202.099,52.099z"/><path style="fill:#73B54D;" d="M182.598,75.989l-29.001,11.72l-99.162,2.6L33.135,68.999     C73.266,22.417,146.676,25.485,182.598,75.989z"/><path style="fill:#DE9A4A;" d="M200.889,100.99c13.39,0,24.231,10.85,24.231,24.231v15.437H120.117v-15.437     c0-7.84,3.72-14.81,9.5-19.23c8.604-6.621,17.283-4.636,20.501-5c0.06-0.452-0.541-6.639,3.48-13.28     c4.24-7.03,11.95-11.72,20.76-11.72c7.929,0,22.988,0,36.531,0c13.39,0,24.231,10.85,24.231,24.231v0.77h-25.001H200.889z"/><path style="fill:#E2AE4C;" d="M270.12,75.989h5.77c13.39,0,24.231,10.85,24.231,24.231v0.77h5.77     c13.39,0,24.231,10.85,24.231,24.231v15.437H225.119v-15.437c0-13.38-10.84-24.231-24.231-24.231c8.044,0,26.119,0,34.231,0     v-0.77c0-13.38-10.84-24.231-24.231-24.231h-25.771v-0.77c0-13.442,10.923-24.231,24.241-24.231c9.705,0,27.568,0,36.531,0     c13.39,0,24.231,10.85,24.231,24.231V75.989z"/><path style="fill:#474556;" d="M452.065,476.829c8.06,0,14.58,6.53,14.58,14.59c0,8.05-6.52,14.58-14.58,14.58h-15.84     c-19.66,0-37.641-11.11-46.421-28.691l-3.68-7.35c-12.47-35.961,32.214-61.628,39.801-24.581l0,0.01l3.1,13.19     C431.544,469.279,441.085,476.829,452.065,476.829z"/><path style="fill:#474556;" d="M194.119,469.959l-3.66,7.35c-8.8,17.58-26.761,28.691-46.421,28.691h-15.84     c-8.06,0-14.6-6.53-14.6-14.58c0-8.06,6.54-14.59,14.6-14.59c10.98,0,20.52-7.55,23.041-18.25l3.1-13.18     C161.665,399.664,209.666,427.665,194.119,469.959z"/><path style="fill:#5C576E;" d="M493.986,340.996C471.365,430.217,388.807,491,290.121,491     c-97.089,0-180.896-59.387-203.865-150.004l14.007-20h376.243L493.986,340.996z"/><path style="fill:#5C576E;" d="M499.186,270.994l-22.681,24.667H97.496l-16.43-24.667c3.69-39.121,18.12-75.102,40.301-105.003     l168.754-20l168.765,20C481.066,195.892,495.486,231.873,499.186,270.994z"/><path style="fill:#474556;" d="M499.186,270.994c-7.766,0-406.466,0-418.12,0c-2.168,22.643-0.724,46.671,5.19,70.002     c29.067,0,387.513,0,407.73,0C499.746,318.271,501.395,294.435,499.186,270.994z"/><path style="fill:#D25267;" d="M153.598,87.71c-2.21,3.65-3.48,7.93-3.48,12.51v0.77h-5.76c-5.55,0-10.66,1.86-14.74,5     c-6.32-6.19-14.96-10-24.501-10c-12.22,0-22.981,6.27-29.241,15.76L54.435,90.31c11.9-14.83,30.181-24.321,50.681-24.321     C124.397,65.989,141.717,74.379,153.598,87.71z"/><path style="fill:#E6C34F;" d="M373.653,332.576c0,14.614-11.854,26.571-26.581,26.571h-3.79v3.8     c0,14.67-11.91,26.571-26.581,26.571c-14.662,0-26.571-11.91-26.571-26.571l-9.797-28.617l9.787-28.334l29.547-10.334     l27.404,10.334C361.725,305.995,373.653,317.895,373.653,332.576z"/><path style="fill:#E6C34F;" d="M233.18,252.844h3.79v-3.8c0-14.67,11.91-26.571,26.581-26.571     c14.662,0,26.571,11.91,26.571,26.571l11.88,28.617l-11.88,28.334l-28.787,11.334l-28.154-11.334     c-14.653,0-26.581-11.9-26.581-26.581C206.599,264.801,218.453,252.844,233.18,252.844z"/><path style="fill:#474556;" d="M460.126,165.992H120.263c-11.046,0-20-8.954-20-20v-0.001c0-11.046,8.954-20,20-20h339.863     c11.046,0,20,8.954,20,20v0.001C480.126,157.037,471.171,165.992,460.126,165.992z"/><path style="fill:#E2AE4C;" d="M206.599,332.576c0-14.665,11.911-26.581,26.581-26.581h56.941l0.01,56.951     c0,14.618-11.89,26.571-26.581,26.571c-14.67,0-26.581-11.9-26.581-26.571v-3.8h-3.79     C218.45,359.146,206.599,347.185,206.599,332.576z"/><path style="fill:#E2AE4C;" d="M373.653,279.414c0,14.665-11.911,26.581-26.581,26.581h-56.951v-56.951     c0-14.619,11.89-26.571,26.581-26.571c14.67,0,26.581,11.9,26.581,26.571v3.8h3.79     C361.802,252.844,373.653,264.805,373.653,279.414z"/><path d="M505.126,290.995c0-43.538-13.065-85.577-37.39-121.18c9.844-3.131,17.389-12.432,17.389-23.823     c0-13.785-11.211-25.001-24.991-25.001h-2.937c8.35-20.692-1.883-43.941-22.147-52.11c-0.976-13.979-11.571-25.351-25.193-27.519     c-2.301-19.885-19.243-35.374-39.735-35.374c-12.643,0-24.409,6.021-31.879,15.857c-10.814-13.101-30.398-14.533-43.056-3.263     c-23.153-8.264-49.16,3.741-57.497,27.407c-28.426,0.168-28.905-0.389-33.751,0.525C152.476-13.673,60.266-13.955,8.145,44.409     c-1.767,1.978-1.682,4.99,0.194,6.865l64.002,64.011c2.239,2.239,5.969,1.856,7.709-0.782     c5.581-8.461,14.953-13.513,25.067-13.513c6.146,0,12.02,1.85,16.985,5.271c-3.678,4.287-6.015,9.528-6.737,15.182     c-11.29,2.164-20.248,12.13-20.248,24.548c0,11.137,7.322,20.593,17.403,23.817c-23.807,34.84-37.404,76.74-37.404,121.187     c0,61.571,26.055,117.628,73.636,156.315l-2.381,10.122c-1.996,8.477-9.47,14.397-18.173,14.397     c-10.808,0-19.601,8.788-19.601,19.59c0,10.797,8.793,19.581,19.601,19.581h15.84c21.68,0,41.181-12.052,50.897-31.463     l1.509-3.03C225.5,489.435,256.985,496,290.121,496c33.149,0,64.638-6.566,93.687-19.497l1.522,3.04     C395.021,498.946,414.523,511,436.224,511h15.84c10.797,0,19.581-8.783,19.581-19.581c0-10.802-8.783-19.59-19.581-19.59     c-8.703,0-16.177-5.92-18.173-14.394l-2.381-10.133C479.356,408.398,505.126,352.175,505.126,290.995z M236.969,354.147h-3.79     c-12.007,0-21.581-9.734-21.581-21.571c0-11.954,9.713-21.581,21.581-21.581h51.943l0.009,51.951     c0,11.756-9.543,21.57-21.581,21.57c-11.9,0-21.581-9.676-21.581-21.57v-3.8C241.97,356.385,239.731,354.147,236.969,354.147z      M90.211,335.996c-3.368-14.528-5.095-29.641-5.095-45.001c0-5.002,0.187-10.028,0.55-15h116.139     c-1.35,12.494,4.599,23.73,14.335,30.001c-8.856,5.704-14.541,15.485-14.541,26.58c0,1.15,0.084,2.288,0.207,3.42H90.211z      M123.902,170.992H456.35c20.275,28.044,33.072,60.736,37.249,95.002H375.636c-4.984-10.63-15.491-17.687-27.375-18.128     c-0.622-16.865-14.54-30.392-31.559-30.392c-11.034,0-20.832,5.631-26.577,14.531c-5.76-8.93-15.577-14.531-26.575-14.531     c-17.019,0-30.937,13.528-31.559,30.392c-11.887,0.441-22.398,7.502-27.376,18.128H86.652     C90.82,231.74,103.618,199.048,123.902,170.992z M347.073,300.995h-51.951v-51.951c0-11.756,9.543-21.57,21.581-21.57     c11.9,0,21.581,9.676,21.581,21.57v3.8c0,2.762,2.238,5,5,5h3.79c19.198,0,28.774,23.308,15.259,36.822     C358.241,298.747,352.822,300.995,347.073,300.995z M233.179,300.995c-11.987,0-21.773-9.856-21.578-21.753     c0.179-10.952,8.676-21.399,21.578-21.399h3.79c2.762,0,5-2.238,5-5v-3.8c0-13.037,10.695-21.581,21.781-21.571     c11.664,0.011,21.371,9.66,21.371,21.571v51.951H233.179z M295.122,310.995h51.951c11.883,0,21.581,9.641,21.581,21.581     c0,11.821-9.555,21.571-21.581,21.571h-3.79c-2.762,0-5,2.238-5,5v3.8c0,11.894-9.681,21.57-21.581,21.57     c-11.898,0-21.571-9.651-21.571-21.57C295.13,359.804,295.123,313.958,295.122,310.995z M364.112,305.995     c9.912-6.384,15.663-17.707,14.335-30h116.134c0.36,4.991,0.545,10.018,0.545,15c0,15.36-1.727,30.473-5.095,45.001H378.447     c0.122-1.132,0.207-2.271,0.207-3.42C378.654,321.503,372.986,311.711,364.112,305.995z M294.352,29.014     c2,0.894,4.344,0.383,5.788-1.257c9.756-11.056,27.848-8.134,33.495,5.648c1.662,4.05,7.368,4.145,9.178,0.176     c4.866-10.687,15.586-17.592,27.31-17.592c16.542,0,30.001,13.458,30.001,30.001c0,2.762,2.238,5,5,5     c11.536,0,20.677,9.805,19.97,21.136c-0.146,2.328,1.336,4.448,3.573,5.11c18.397,5.438,27.172,26.9,17.439,43.756     c-33.528,0-77.75,0-111.295,0c-2.056-14.12-14.24-25.001-28.921-25.001h-1.075c-2.056-14.12-14.244-25.001-28.926-25.001h-1.075     c-1.935-13.293-12.851-23.711-26.372-24.887C256.561,28.787,277.082,21.298,294.352,29.014z M245.89,55.989     c9.149,0,16.812,6.428,18.747,15H250.12c-2.762,0-5,2.238-5,5c0,2.762,2.238,5,5,5c8.728,0,18.222,0,25.77,0     c9.149,0,16.812,6.428,18.747,15h-9.516c-2.762,0-5,2.238-5,5c0,2.762,2.238,5,5,5c6.14,0,14.458,0,20.77,0     c9.149,0,16.812,6.428,18.747,15h-94.827c-0.829-5.693-3.302-10.861-6.926-15h12.235c2.762,0,5-2.238,5-5v-0.77     c0-16.119-13.113-29.231-29.231-29.231h-20.295c1.983-8.904,9.869-15,18.766-15H245.89z M185.119,95.99c-2.762,0-5,2.238-5,5     c0,2.762,2.238,5,5,5h15.77c9.151,0,16.83,6.425,18.762,15h-94.072c1.881-8.443,9.475-15,18.779-15h5.76c2.762,0,5-2.238,5-5     v-0.77c0-10.36,8.31-19.231,19.241-19.231h36.53c9.151,0,16.83,6.425,18.762,15C225.415,95.99,189.984,95.99,185.119,95.99z      M54.201,83.002L40.037,68.834c36.395-38.113,97.295-36.819,132.228,2.232c-7.388,0.515-14.144,3.749-19.126,9.036     C125.077,53.599,80.756,54.745,54.201,83.002z M193.99,50.339c-5.999,3.681-10.424,9.39-12.517,16.073     C143.212,21.27,74.151,18.823,32.962,61.759L18.817,47.611C66.743-1.971,147.127-1.329,193.99,50.339z M75.403,104.207     L61.272,90.073c23.114-24.835,62.268-25.531,86.269-1.494c-1.027,2.364-1.744,4.854-2.116,7.411     c-0.711,0.083-7.509-0.684-15.35,3.736C113.651,86.58,89.616,88.422,75.403,104.207z M105.117,145.991c0-8.283,6.715-15,15-15     c8.548,0,324.877,0,340.018,0c8.266,0,14.991,6.729,14.991,15c0,8.132-6.568,15-14.991,15c-13.11,0-326.242,0-340.018,0     C111.845,160.991,105.117,154.263,105.117,145.991z M144.037,501h-15.84c-5.294,0-9.601-4.298-9.601-9.58     c0-5.288,4.307-9.59,9.601-9.59c13.366,0,24.841-9.089,27.908-22.106l1.344-5.714c9.389,6.844,19.417,12.953,29.949,18.229     l-1.41,2.832C177.982,491.064,161.907,501,144.037,501z M452.064,481.829c5.282,0,9.58,4.302,9.58,9.59     c0,5.282-4.298,9.58-9.58,9.58h-15.84c-17.887,0-33.961-9.934-41.95-25.929l-1.42-2.836c10.534-5.275,20.565-11.388,29.956-18.24     l1.346,5.731C427.223,472.74,438.699,481.829,452.064,481.829z M290.121,485.999c-90.167,0-172.132-53.098-197.318-140.003     h111.813c4.984,10.63,15.491,17.687,27.375,18.128c0.622,16.865,14.54,30.392,31.559,30.392c11.034,0,20.832-5.631,26.577-14.531     c5.76,8.93,15.577,14.531,26.575,14.531c17.019,0,30.937-13.528,31.559-30.392c11.887-0.441,22.397-7.502,27.376-18.128h111.802     C462.391,432.419,380.875,485.999,290.121,485.999z"/></g></g></g><g id="Layer_1"/></svg>