<?xml version="1.0" encoding="UTF-8"?>
<svg id="katman_2" data-name="katman 2" xmlns="http://www.w3.org/2000/svg" xmlns:xlink="http://www.w3.org/1999/xlink" viewBox="0 0 83.59 111.84">
  <defs>
    <style>
      .cls-1 {
        fill: #f2c334;
      }

      .cls-2 {
        fill: #e7c17f;
      }

      .cls-3 {
        fill: #fceb88;
      }

      .cls-4 {
        fill: #8f4c25;
      }

      .cls-5 {
        fill: #ce9a57;
      }

      .cls-6 {
        fill: #b97135;
      }

      .cls-7 {
        fill: #f7dc61;
      }

      .cls-8 {
        fill: #fdf184;
      }

      .cls-9 {
        fill: #f4da9e;
      }

      .cls-10 {
        fill: #c08546;
      }

      .cls-11 {
        fill: #d19e5b;
      }

      .cls-12 {
        fill: #f6aa12;
      }

      .cls-13 {
        fill: #ab601b;
      }

      .cls-14 {
        fill: #9b5d2b;
      }

      .cls-15 {
        fill: #d2a05c;
      }

      .cls-16 {
        fill: #cc7f39;
      }

      .cls-17 {
        fill: #e9c885;
      }

      .cls-18 {
        fill: #cd9859;
      }

      .cls-19 {
        fill: #c98839;
      }

      .cls-20 {
        fill: #f2d799;
      }

      .cls-21 {
        fill: #eb9e14;
      }

      .cls-22 {
        fill: #af6930;
      }

      .cls-23 {
        fill: #d08d36;
      }

      .cls-24 {
        fill: #6e3b1e;
      }

      .cls-25 {
        fill: #f0d05d;
      }

      .cls-26 {
        fill: url(#Adsız_degrade_27);
      }

      .cls-27 {
        fill: #f6e0a7;
      }

      .cls-28 {
        fill: #efc75a;
      }

      .cls-29 {
        fill: #ca9557;
      }

      .cls-30 {
        fill: #ffed80;
      }

      .cls-31 {
        fill: #ffe462;
      }

      .cls-32 {
        fill: #e7aa24;
      }

      .cls-33 {
        fill: #e88e0c;
      }

      .cls-34 {
        fill: #f5e2ad;
      }

      .cls-35 {
        fill: #a76020;
      }

      .cls-36 {
        fill: #fab419;
      }

      .cls-37 {
        fill: #bd843b;
      }

      .cls-38 {
        fill: #c9914d;
      }

      .cls-39 {
        fill: #9b5921;
      }

      .cls-40 {
        fill: #ebc988;
      }

      .cls-41 {
        fill: #e6bf7b;
      }

      .cls-42 {
        fill: #a15a1f;
      }

      .cls-43 {
        fill: #854225;
      }

      .cls-44 {
        fill: #b3671b;
      }

      .cls-45 {
        fill: #c78d4c;
      }

      .cls-46 {
        fill: #e89914;
      }

      .cls-47 {
        fill: #f8e17a;
      }

      .cls-48 {
        fill: #f0d597;
      }

      .cls-49 {
        fill: #fac41b;
      }

      .cls-50 {
        fill: #fdfdf6;
      }

      .cls-51 {
        fill: #cb8e2d;
      }

      .cls-52 {
        fill: #a35a22;
      }

      .cls-53 {
        fill: #a23d16;
      }

      .cls-54 {
        fill: #c79051;
      }

      .cls-55 {
        fill: url(#Adsız_degrade_29);
      }

      .cls-56 {
        fill: #9c5622;
      }

      .cls-57 {
        fill: url(#Adsız_degrade_33);
      }

      .cls-58 {
        fill: #e6be7b;
      }

      .cls-59 {
        fill: #c98b48;
      }

      .cls-60 {
        fill: #b36e2f;
      }

      .cls-61 {
        fill: #a25f2f;
      }

      .cls-62 {
        fill: #f3db9f;
      }

      .cls-63 {
        fill: #e9c685;
      }

      .cls-64 {
        fill: #ab6d38;
      }

      .cls-65 {
        fill: #e6c685;
      }

      .cls-66 {
        fill: #914c24;
      }

      .cls-67 {
        fill: #985426;
      }

      .cls-68 {
        fill: #944f15;
      }

      .cls-69 {
        fill: #f3c432;
      }

      .cls-70 {
        fill: #d68f1c;
      }

      .cls-71 {
        fill: #b26c2d;
      }

      .cls-72 {
        fill: #c77c19;
      }

      .cls-73 {
        fill: #bd8348;
      }

      .cls-74 {
        fill: #f9dc4b;
      }

      .cls-75 {
        fill: #ffdd4a;
      }

      .cls-76 {
        fill: #e4bb75;
      }

      .cls-77 {
        fill: #f5e363;
      }

      .cls-78 {
        fill: #ca801a;
      }

      .cls-79 {
        fill: #edb425;
      }

      .cls-80 {
        fill: #995829;
      }

      .cls-81 {
        fill: #824113;
      }

      .cls-82 {
        fill: #e3ad39;
      }

      .cls-83 {
        fill: #f7bd15;
      }

      .cls-84 {
        fill: #e0b674;
      }

      .cls-85 {
        fill: #de9c20;
      }

      .cls-86 {
        fill: #d59326;
      }

      .cls-87 {
        fill: #ebc987;
      }

      .cls-88 {
        fill: #f1d658;
      }

      .cls-89 {
        fill: #e7ae24;
      }

      .cls-90 {
        fill: #ce923f;
      }

      .cls-91 {
        fill: #fbea79;
      }

      .cls-92 {
        fill: #ca9658;
      }

      .cls-93 {
        fill: #b0661b;
      }

      .cls-94 {
        fill: #b06b33;
      }

      .cls-95 {
        fill: #cfad6a;
      }

      .cls-96 {
        fill: #c08c49;
      }

      .cls-97 {
        fill: #f0c651;
      }

      .cls-98 {
        fill: #b55217;
      }

      .cls-99 {
        fill: #924e19;
      }

      .cls-100 {
        fill: #b9804a;
      }

      .cls-101 {
        fill: #ffeb61;
      }

      .cls-102 {
        fill: #daa43b;
      }

      .cls-103 {
        fill: #ac7041;
      }

      .cls-104 {
        fill: #aa5d1d;
      }

      .cls-105 {
        fill: #c88e50;
      }

      .cls-106 {
        fill: #b74817;
      }

      .cls-107 {
        fill: #ba7126;
      }

      .cls-108 {
        fill: #e5bf7b;
      }

      .cls-109 {
        fill: #b1631a;
      }

      .cls-110 {
        fill: #5e2a20;
      }

      .cls-111 {
        fill: #94592f;
      }

      .cls-112 {
        fill: #692e21;
      }

      .cls-113 {
        fill: #9b5327;
      }

      .cls-114 {
        fill: #fce99b;
      }

      .cls-115 {
        fill: #e5c789;
      }

      .cls-116 {
        fill: #a15b23;
      }

      .cls-117 {
        fill: #8e5321;
      }

      .cls-118 {
        fill: #bf8645;
      }

      .cls-119 {
        fill: #ddb16f;
      }

      .cls-120 {
        fill: #c89155;
      }

      .cls-121 {
        fill: #a2663a;
      }

      .cls-122 {
        fill: #dcb272;
      }

      .cls-123 {
        fill: url(#Adsız_degrade_34);
      }

      .cls-124 {
        fill: #d7ad6b;
      }

      .cls-125 {
        fill: #fbbe1a;
      }

      .cls-126 {
        fill: #d09231;
      }

      .cls-127 {
        fill: #f0d190;
      }

      .cls-128 {
        fill: url(#Adsız_degrade_35);
      }

      .cls-129 {
        fill: #cf6814;
      }

      .cls-130 {
        fill: #d2891a;
      }

      .cls-131 {
        fill: #ce9b56;
      }

      .cls-132 {
        fill: #e8bc52;
      }

      .cls-133 {
        fill: #763e1a;
      }

      .cls-134 {
        fill: #e4bc79;
      }

      .cls-135 {
        fill: #fcf6e5;
      }

      .cls-136 {
        fill: #dc9c2d;
      }

      .cls-137 {
        fill: #f3d569;
      }

      .cls-138 {
        fill: #e0b672;
      }

      .cls-139 {
        fill: #edce8d;
      }

      .cls-140 {
        fill: #824821;
      }

      .cls-141 {
        fill: #e2e0de;
      }

      .cls-142 {
        fill: #9c5219;
      }

      .cls-143 {
        fill: #a15b29;
      }

      .cls-144 {
        fill: #e0c8b0;
      }

      .cls-145 {
        fill: #9d6539;
      }

      .cls-146 {
        fill: #d9790f;
      }

      .cls-147 {
        fill: #edcd8b;
      }

      .cls-148 {
        fill: #f1d392;
      }

      .cls-149 {
        fill: #9a5827;
      }

      .cls-150 {
        fill: #a96720;
      }

      .cls-151 {
        fill: #874324;
      }

      .cls-152 {
        fill: #a63f17;
      }

      .cls-153 {
        fill: #8d491f;
      }

      .cls-154 {
        fill: #fdd11f;
      }

      .cls-155 {
        fill: #fce881;
      }

      .cls-156 {
        fill: #bd7c3a;
      }

      .cls-157 {
        fill: #e0b470;
      }

      .cls-158 {
        fill: #a35d1c;
      }

      .cls-159 {
        fill: #fbf3a0;
      }

      .cls-160 {
        fill: #bf8c4d;
      }

      .cls-161 {
        fill: #af6a2c;
      }

      .cls-162 {
        fill: #efc64c;
      }
    </style>
    <linearGradient id="Adsız_degrade_33" data-name="Adsız degrade 33" x1="40.85" y1="11.44" x2="41.12" y2="18.03" gradientUnits="userSpaceOnUse">
      <stop offset="0" stop-color="#bc834b"/>
      <stop offset="1" stop-color="#cf9d5a"/>
    </linearGradient>
    <linearGradient id="Adsız_degrade_29" data-name="Adsız degrade 29" x1="9.61" y1="3.36" x2="6.54" y2="6.55" gradientUnits="userSpaceOnUse">
      <stop offset="0" stop-color="#eab538"/>
      <stop offset="1" stop-color="#db9a2a"/>
    </linearGradient>
    <linearGradient id="Adsız_degrade_27" data-name="Adsız degrade 27" x1="22.52" y1="105.61" x2="70.08" y2="106.48" gradientUnits="userSpaceOnUse">
      <stop offset="0" stop-color="#ce9d5d"/>
      <stop offset=".72" stop-color="#b9804b"/>
    </linearGradient>
    <linearGradient id="Adsız_degrade_34" data-name="Adsız degrade 34" x1="37.47" y1="51.15" x2="45.98" y2="61.92" gradientUnits="userSpaceOnUse">
      <stop offset="0" stop-color="#ffdd4a"/>
      <stop offset="1" stop-color="#fcc31f"/>
    </linearGradient>
    <linearGradient id="Adsız_degrade_35" data-name="Adsız degrade 35" x1="37.73" y1="45.1" x2="37.29" y2="64.88" gradientUnits="userSpaceOnUse">
      <stop offset="0" stop-color="#eb920d"/>
      <stop offset="1" stop-color="#d16a14"/>
    </linearGradient>
  </defs>
  <g id="katman_2-2" data-name="katman 2">
    <g id="_Üretken_Nesne" data-name="Üretken Nesne">
      <path class="cls-84" d="M12.86,1.83c-.31,1.74,1.75,3.46,3.3,3.78.95.2,1.99-.04,2.81.11,5.61,1.02,9.43,1.22,15.19,1.3,4.23.05,8.47-.29,12.7,0,7.49.52,13.38,1.8,21.19,1.08.89-.08,2.13,0,2.7-.76l.27,1.51c-6.05,1.79-13.38.38-19.62,1.3-1.82.27-3.66.49-5.46.86-5.3-.1-10.59-.01-15.89.11-.84-.86-2.05-.68-2.59-1.68-.21-.38-.26-1.26-.49-1.35-4.75,1.96-10.69,1.52-15.41-.43.07-1.96.71-4.3.76-5.95l.54.11Z"/>
      <path class="cls-147" d="M71.23,8.86c-.07,0-.16-.02-.22,0l-.27-1.51c-.58.75-1.82.68-2.7.76-7.81.71-13.7-.57-21.19-1.08-4.23-.29-8.47.05-12.7,0,.27-.33,1.16-.47,1.57-.54,9.85-1.82,21.95-.36,32-2.27.37-.07,1.21-.21,1.51-.32.09-.03,1.16-.69,1.19-.76.08-.15-.26-1.13-.16-1.41.11-.01.12-.11.22-.11.01.67.58,2.22.65,3.08.11,1.38.11,2.78.11,4.16Z"/>
      <path class="cls-57" d="M45.94,11.02c5.47.1,10.99.69,16.49.76,2.91.03,5.91-.2,8.81-.43-.04,1.01-.56,3.02-.54,3.73,0,.28.2.5.43.59.54.22,4.89.01,5.84,0-2.4,1.35-5.58,1.76-8.32,2.05-7.04.76-14.61.82-21.73,1.19-10.26.53-20.63.47-30.81,1.95-.19.03-.65.31-.76.32-.04,0-.07,0-.11,0v-1.89l-.27-.16-9.68,1.73c0-.97,0-1.95,0-2.92.78-.09,1.56-.24,2.32-.43.92-.23,2.26-.99,3.3-1.51.21-.11.46-.18.65-.32.15-.12.31-.22.43-.38-.29-1.14-.4-2.34-.43-3.51,6.16-.06,12.33-.51,18.49-.65,5.3-.12,10.59-.21,15.89-.11Z"/>
      <g>
        <path class="cls-9" d="M70.26,1.72c-.1.28.24,1.26.16,1.41-.03.06-1.1.72-1.19.76-.3.11-1.15.25-1.51.32-10.05,1.91-22.15.45-32,2.27-.41.08-1.3.21-1.57.54-5.76-.07-9.58-.28-15.19-1.3-.82-.15-1.86.09-2.81-.11-1.55-.33-3.61-2.04-3.3-3.78l14.86.32c.45.15,1.31,2.9,1.46,3.46.04.15.11.1.11.11-.04.13-.2.2-.05.32.31-.19.06-.3.05-.32.01-.03-.01-.08,0-.11.18-.41,1.46-2.59,1.73-2.92l.22-.22s.18-.3.27-.32c5.51.08,11.03.17,16.54.11,6.94-.08,15.45.17,22.22-.54Z"/>
        <path class="cls-135" d="M29.29,5.72s-.07.04-.11-.11h.11s.01.07,0,.11Z"/>
        <path class="cls-135" d="M31.24,2.48l-.22.22c.15-.18.08-.1.22-.22Z"/>
        <path class="cls-96" d="M19.61,4.96c.16,0,.45.54.11.65-.31.1-.57-.67-.11-.65Z"/>
        <path class="cls-95" d="M29.29,5.72s.26.13-.05.32c-.14-.13.01-.2.05-.32Z"/>
      </g>
      <path class="cls-92" d="M30.05,11.13c-6.16.14-12.32.59-18.49.65-.03-1.34-.05-2.77,0-4.11,4.71,1.95,10.66,2.39,15.41.43.23.09.27.97.49,1.35.55.99,1.76.81,2.59,1.68Z"/>
      <path class="cls-29" d="M71.23,8.86c0,.82.03,1.66,0,2.49-2.9.23-5.9.47-8.81.43-5.49-.07-11.01-.65-16.49-.76,1.8-.38,3.64-.6,5.46-.86,6.24-.92,13.57.49,19.62-1.3.05-.02.15,0,.22,0Z"/>
      <path class="cls-111" d="M10.91,15.99c-1.04.52-2.38,1.28-3.3,1.51-.76.19-1.54.34-2.32.43,0-.76.02-1.41-.11-2.16-.02-.11-.04-.32.11-.32.02.02-.05.18.05.22l5.57.32Z"/>
      <g>
        <path class="cls-63" d="M15.67,94.69c7.96-.19,16.3.09,24.32.11,5.92.01,11.81.11,17.73.11.55.26.4.61.43.65-.18,0-.12.44-.05.43.1-.11.04-.29.05-.43.15.2.37.43.54.65l-3.3,1.51c-4.29,1.2-8.92-.59-13.19.76-1.22.39-2.46,1.35-3.78,1.73-3.73,1.06-9.98.7-13.84.11-4.28-.66-8.26-2.63-12.7-2.59.05-.74.45-2.51.43-2.92,1.12.1,2.25-.08,3.35-.11Z"/>
        <path class="cls-18" d="M39.99,94.8c-8.02-.02-16.36-.29-24.32-.11-.66-.36-.18-1.62-.32-2.27,2.43,1.75,9.35,2.01,12.49,2.16,4.04.19,8.13-.11,12.16.22Z"/>
        <path class="cls-108" d="M30.32,98.04c.76-.25.36.85.11.86-.37.02-.42-.76-.11-.86Z"/>
        <path class="cls-62" d="M58.15,95.56c-.02.14.05.33-.05.43-.07,0-.13-.44.05-.43Z"/>
      </g>
      <g>
        <g>
          <path class="cls-79" d="M4.97.1c-.3.7-.53,1.41-.65,2.16-.56,3.39-.23,6.86-.22,10.27-.03-.3-.2-.66-.22-.86-.04-.58.05-4.16-.11-4.38-.1-.13-1.16-.05-1.3.11-.26.3-.1,1.57-.32,1.95l.11-6.76c.04-.27.23-.48,0-.76C3.11.74,2.65-.34,4.97.1Z"/>
          <path class="cls-149" d="M12.32,1.72c-.05,1.64-.68,3.99-.76,5.95-.05,1.34-.03,2.77,0,4.11.03,1.17.15,2.38.43,3.51-.12.15-.28.26-.43.38-.71-.39-.69-1.56-.76-2.27-.01-.13.02-.41,0-.65-.09-1.33-.14-2.67-.11-4,.05-2.69.04-5.92,1.19-8.32.21.17.44,1.05.43,1.3Z"/>
          <path class="cls-86" d="M6.26.32l-.65.7c-.16.69-.32,3.09-.54,3.57-.06.13-.38.27-.54.27.02-.55.57-4.22.86-4.43.3.04.57-.08.86-.11Z"/>
          <path class="cls-142" d="M5.4.42c-.29.21-.84,3.88-.86,4.43-.03.74,0,1.43.11,2.16h-.32c0-1.25.45-3.53.32-4.59-.04-.32-.04-.15-.32-.16.12-.75.35-1.47.65-2.16.18.03.25.29.43.32Z"/>
          <path class="cls-78" d="M4.32,7.02c0,1.37.24,7.56.97,8.43-.15,0-.13.22-.11.32-3.02.74-3.03-2.37-3.24-4.54-.09-.93-.11-2.08-.11-3.03s.05-2.01.11-2.92.19-1.79.32-2.7l-.11,6.76c.23-.38.06-1.64.32-1.95.13-.15,1.2-.24,1.3-.11.15.22.07,3.8.11,4.38-.6.13-.96-.17-1.41-.49-.06,1.36.17,2.7.7,3.95.17-.29,1.15-.49,1.19-.54.07-.08-.24-1.73-.27-2.05-.01-3.41-.34-6.88.22-10.27.28.02.29-.16.32.16.13,1.06-.32,3.35-.32,4.59Z"/>
          <path class="cls-66" d="M1.18,5.4s-.1.21-.11.22c-1.13.77-.72,1.91-.81,3.14.12.09.61-.4.7-.43.14-.05.65-.02.86-.11,0,.95.02,2.1.11,3.03C-.48,11.97-.18,6.63.42,5.78c.18-.25.49-.3.76-.38Z"/>
          <path class="cls-71" d="M1.94,5.29c-.06.91-.11,2-.11,2.92-.21.09-.73.06-.86.11l.11-2.7s.1-.17.11-.22c.26-.08.46-.16.76-.11Z"/>
          <path class="cls-113" d="M7.13,10.05c.53.23,3.29.84,3.41.97.15.16-.04,1.43.27,1.73.02.24-.01.52,0,.65-.73-.29-2,.4-2.65.22-.13-.04-.4-.7-.54-.76-.68-.26-.79.72-.86.76-.15.08-1.64.02-1.78-.16-.29-.36-.53-5.42-.32-6.22.28,1.52,1.12,2.21,2.49,2.81Z"/>
          <path class="cls-107" d="M10.69,8.75c-.03,1.33.02,2.67.11,4-.31-.3-.12-1.57-.27-1.73-.12-.13-2.87-.74-3.41-.97-.02-.41.58-.41.76-.59.04-.04-.03-.35,0-.38.15-.15.36-.26.54-.43,0,0-.12.36.22.05.47-.43.17-.93.92-.92.69,0,.9.43,1.14.97Z"/>
          <g>
            <path class="cls-55" d="M11.88.42c-1.15,2.4-1.13,5.64-1.19,8.32-.23-.54-.45-.96-1.14-.97-.75,0-.45.49-.92.92-.33.3-.21-.06-.22-.05l.16-.76c-.56.41-1.41.96-2.05-.22-.22.83.58,1.5,1.35,1.41-.03.03.04.34,0,.38-.17.18-.78.18-.76.59-1.37-.6-2.2-1.29-2.49-2.81-.01-.07.01-.15,0-.22-.11-.73-.14-1.43-.11-2.16.16,0,.48-.14.54-.27.23-.48.38-2.88.54-3.57l.65-.7c.72-.08,5.27-.17,5.62.11Z"/>
            <g>
              <path class="cls-42" d="M8.42,8.64c-.18.18-.39.29-.54.43-.77.09-1.57-.57-1.35-1.41.64,1.18,1.49.63,2.05.22l-.16.76Z"/>
              <path class="cls-88" d="M7.94,7.02c.58.32.16,1.12-.54.97-.27-.06.21-.4-.16-.59l.7-.38Z"/>
              <path class="cls-51" d="M7.34,1.72c.06.14.07.29.22.43,0,.04.44.54-.43.32l-.32-.65c.07-.18.26-.29.38-.43.18-.02.08.15.16.32Z"/>
              <path class="cls-150" d="M10.42.96c.09.07-.24.78-.27.81-.14.17-.31.26-.49.38-.06-.57.26-1,.76-1.19Z"/>
              <path class="cls-81" d="M7.13,2.48c-.15-.04-.3.06-.43-.16-.03-.08.07-.39.11-.49l.32.65Z"/>
              <path class="cls-155" d="M7.56,2.15c-.15-.14-.15-.3-.22-.43.88.14.22.39.22.43Z"/>
            </g>
          </g>
          <path class="cls-109" d="M3.88,11.67c.01.2.19.56.22.86.03.32.34,1.97.27,2.05-.04.05-1.02.25-1.19.54-.53-1.25-.76-2.58-.7-3.95.45.31.81.62,1.41.49Z"/>
          <path class="cls-126" d="M1.07,5.61l-.11,2.7c-.1.04-.58.52-.7.43.09-1.23-.32-2.36.81-3.14Z"/>
          <g>
            <path class="cls-151" d="M4.64,7.02c.01.07-.01.15,0,.22-.21.79.04,5.85.32,6.22.15.18,1.64.24,1.78.16.07-.04.18-1.02.86-.76.14.05.41.72.54.76.65.19,1.92-.5,2.65-.22.07.71.05,1.88.76,2.27-.19.14-.44.22-.65.32l-5.57-.32c-.1-.04-.03-.19-.05-.22-.73-.88-.98-7.06-.97-8.43h.32Z"/>
            <path class="cls-16" d="M7.29,12.96c.09-.05.28.15.27.16-.08.18-.51-.02-.27-.16Z"/>
          </g>
        </g>
        <g>
          <path class="cls-80" d="M71.34,1.07c.52,1.45.64,3.22.76,4.76.04.61.09,1.23.11,1.84.02.9.05,1.92,0,2.81-.09,1.67-.27,3.75-1.08,5.19-.24-.1-.42-.32-.43-.59-.02-.71.5-2.72.54-3.73.03-.82,0-1.66,0-2.49,0-1.39,0-2.78-.11-4.16-.07-.87-.64-2.41-.65-3.08,0-.24.25-1.07.43-1.19.31.12.34.38.43.65Z"/>
          <path class="cls-153" d="M78.8,6.69c0,.43,0,.87,0,1.3-.02,1.65-.3,3.32-.27,4.97.4-1.48-.29-2.22,1.73-1.95l.16.92.32-2.43c-.05,1.07-.46,5.19-1.08,5.89-.56.64-1.7.26-2.38.27.2-.25.09-.94.11-1.03.02-.09.21-.04.22-.05-.03.47.32-.35.32-.38.31-1.62.46-4.22.43-5.89l.43-1.62Z"/>
          <path class="cls-82" d="M79.78.75c.01.1-.02.22,0,.32-1.36.13-.63.44-1.08,1.24.59.12,1.01-.3,1.41.38.16.93.41,2.13.43,2.86.01.48-.22.39-.22.43,0,.25.22.13.22.22,0,.49-.2.85-.11,1.3-.48-.27-.55-.31-1.08-.16-.69-.83-.38-1.82-.43-2.86-.01-.28-.05-1.32-.32-1.46-.13-.97-.51-1.95-.65-2.92.87-.11,1.39-.09,1.84.65Z"/>
          <path class="cls-116" d="M80.75,9.51l-.32,2.43-.16-.92c-2.02-.27-1.33.46-1.73,1.95-.03-1.65.25-3.32.27-4.97.23-.48.04-.51.54-.65.53-.15.6-.11,1.08.16-.09-.45.1-.81.11-1.3,0-.09-.22.03-.22-.22,0-.04.23.04.22-.43-.02-.74-.27-1.94-.43-2.86-.1-.56-.21-1.07-.32-1.62-.02-.1.01-.22,0-.32.99,1.63,1.06,6.77.97,8.76Z"/>
          <path class="cls-93" d="M77.94.1c.14.97.52,1.95.65,2.92.14,1.08.2,2.57.22,3.68l-.43,1.62c0-.33.14-1.12-.22-1.08-.01-1.33.09-2.69-.22-4l-.54-2.81c.07-.22.34-.3.54-.32Z"/>
          <path class="cls-114" d="M72.1,5.83c-.11-1.54-.23-3.31-.76-4.76l6.05.59c-1.47.84-3.08.38-4.7.38-.57.22-.37,3.2-.59,3.78Z"/>
          <g>
            <path class="cls-28" d="M77.4.42l.54,2.81c-.35.88.32,2.35-.11,3.19-.06.11-1.27.8-1.35.81-.62.09-.89-.37-1.68-.22-.35.07-1.01.42-1.08.76l-1.51-.11c-.01-.61-.06-1.23-.11-1.84.23-.59.02-3.56.59-3.78,1.63,0,3.23.47,4.7-.38l-6.05-.59c-.1-.26-.12-.53-.43-.65.81-.54,5.31.06,6.49,0Z"/>
            <path class="cls-68" d="M74.42,3.67c.12,1.15.3,1.01,1.35.92-.66.74-1.91-.02-1.35-.92Z"/>
          </g>
          <path class="cls-156" d="M78.15,10.15c-.45.18-.11,1.56-.49,1.73-.65.28-3-.1-3.73-.43.78-.41,1.59-1.25,2.32-1.62.89-.45,1.72.11,1.89-1.3-.01.54.03,1.09,0,1.62Z"/>
          <path class="cls-24" d="M78.37,8.32c.03,1.67-.12,4.27-.43,5.89,0,.02-.36.85-.32.38.28-1.32.46-3.08.54-4.43.03-.53-.01-1.08,0-1.62.01-.43,0-.87,0-1.3.35-.04.21.75.22,1.08Z"/>
          <g>
            <path class="cls-61" d="M78.15,10.15c-.08,1.35-.26,3.11-.54,4.43,0,.01-.19-.04-.22.05s.09.78-.11,1.03c-.04,0-.07,0-.11,0-.07,0-.14,0-.22,0-.95.01-5.3.22-5.84,0,.81-1.44,1-3.52,1.08-5.19.63.03,1.04.65,1.73.97.73.34,3.08.72,3.73.43.38-.17.04-1.55.49-1.73Z"/>
            <path class="cls-23" d="M75.07,13.18c.16-.1.67-.02.59.38-.05.29-.92-.18-.59-.38Z"/>
            <path class="cls-133" d="M72.05,14.91c.05,0,.26.26.11.32-.36.16-.29-.32-.11-.32Z"/>
          </g>
          <path class="cls-162" d="M79.34,7.34c-.5.14-.31.17-.54.65,0-.43,0-.87,0-1.3-.02-1.1-.07-2.6-.22-3.68.28.14.31,1.18.32,1.46.05,1.05-.26,2.03.43,2.86Z"/>
          <path class="cls-97" d="M80.1,2.69c-.39-.68-.82-.26-1.41-.38.45-.8-.28-1.11,1.08-1.24.12.55.23,1.06.32,1.62Z"/>
          <g>
            <path class="cls-90" d="M78.15,7.23c0,.43.01.87,0,1.3-.17,1.4-1,.85-1.89,1.3-.74.37-1.55,1.21-2.32,1.62-.69-.32-1.1-.94-1.73-.97.05-.89.02-1.91,0-2.81l1.51.11c-.36,1.61,1.88,2.38,2.49,1.03.37-.82-.07-.8-.22-1.03-1.13-1.77-1.06.95,0,.32.43,1.91-3.6.57-1.19-1.08.78-.16,1.06.3,1.68.22.08-.01,1.29-.7,1.35-.81.43-.84-.24-2.3.11-3.19.31,1.31.21,2.67.22,4Z"/>
            <path class="cls-39" d="M74.8,7.02c-2.41,1.65,1.62,3,1.19,1.08-.02-.1.01-.22,0-.32.15.23.58.21.22,1.03-.61,1.35-2.84.58-2.49-1.03.08-.34.73-.69,1.08-.76Z"/>
            <path class="cls-91" d="M75.99,7.78c.01.1-.02.23,0,.32-1.06.63-1.13-2.09,0-.32Z"/>
            <path class="cls-158" d="M74.32,7.56c.09.68.22-.11.38.16.18.31-.3,1.09,1.08.76-.82.71-1.67.12-1.46-.92Z"/>
          </g>
        </g>
      </g>
      <g>
        <path class="cls-100" d="M22.8,104.85c-.32.56-1,.89-1.41,1.19-1.29.95-2.64,2.15-4.22,2.54.16.5,2.32-.76,2.65-.81.13-.2-.31,0-.22-.22.04-.09,1.37-.97,1.57-1.08.04-.02.51-.13.76-.38-.37.42-.26,1.09-.32,1.35-.24.09-.31.25,0,.22-.04.15-.11.1-.11.11-.14.55-.51,1.2-.43,1.84-.09,0-.64.21-.7.22-2.68.08-5.37.07-8.05.22-.06-1.81-.72-4.27-.76-6.59,3.39.96,7.11,1.35,10.65,1.62.34.03.32-.24.59-.22Z"/>
        <path class="cls-62" d="M62.59,94.8c1.98-.01,3.97-.04,5.95,0,.56.01,1.89-.11,2.32,0,.09.02-.01.17.16.32.02.25-.02.51,0,.76-.27.39-.81.72-1.24.86-1.87.62-6.5.71-8.49.43-1.33-.18-1.28-.52-2.38-1.14.8.57,1.04,1.33,1.51,2.11.01.1-.02.23,0,.32-.46-.85-1.15-1.52-1.73-2.27-.17-.22-.39-.45-.54-.65-.03-.04.12-.39-.43-.65,1.62,0,3.25-.1,4.86-.11Z"/>
        <path class="cls-119" d="M60.42,98.48c.2.88.39.32.43.32,1.35.05,1.89.74,2.97,1.08,2.4.76,4.99,1.26,7.51.97,0,.65.01,1.3,0,1.95-2.11.42-4.42-.32-6.43-.43-3.09-.17-5.86,1.2-8.86,1.73-7.85,1.39-14.43.51-22.16.11-3.78-.19-6.59,1.25-10.49.97-.23-.02-.56-.32-.59-.32-.27-.02-.26.24-.59.22-3.54-.27-7.25-.66-10.65-1.62-.03-1.96.18-3.8.32-5.73,4.44-.04,8.42,1.94,12.7,2.59,3.85.59,10.11.96,13.84-.11,1.32-.38,2.56-1.34,3.78-1.73,4.27-1.35,8.9.44,13.19-.76l3.3-1.51c.57.75,1.27,1.42,1.73,2.27Z"/>
        <g>
          <path class="cls-26" d="M71.34,102.8c-.03,1.53-.21,2.98-.32,4.49-.01.18-.13.94.22.92-.1.38-.32,1.62-.65,1.73-6.46-.14-12.94-.47-19.41-.54-9.93-.1-19.97-.07-29.89.22l.22-1.84s.07.04.11-.11c.02-.06-.02-.15,0-.22.06-.27-.05-.94.32-1.35-.24.25-.71.35-.76.38l.22-.43c.41-.3,1.09-.63,1.41-1.19.03,0,.37.31.59.32,3.89.28,6.71-1.17,10.49-.97,7.73.4,14.31,1.28,22.16-.11,3-.53,5.77-1.9,8.86-1.73,2.01.11,4.32.86,6.43.43Z"/>
          <path class="cls-141" d="M21.29,109.61c-.07,0-.14,0-.22,0-.08-.64.3-1.29.43-1.84l-.22,1.84Z"/>
          <path class="cls-121" d="M50.75,106.58c.13.65.1,1.3.59,1.78-.54.16-.69-.1-1.24.27-1-.72.38-1.35.65-2.05Z"/>
        </g>
        <path class="cls-145" d="M21.4,106.04l-.22.43c-.2.11-1.53.99-1.57,1.08-.09.21.35.02.22.22-.33.05-2.49,1.31-2.65.81,1.57-.39,2.92-1.59,4.22-2.54Z"/>
        <path class="cls-144" d="M21.61,107.67c-.31.03-.24-.12,0-.22-.02.06.02.15,0,.22Z"/>
        <path class="cls-134" d="M71.34,100.86c-2.52.28-5.11-.21-7.51-.97-1.09-.35-1.63-1.04-2.97-1.08.21-.45.32-.92.43-1.41,0-.01.18.01,0-.22,1.98.28,6.62.19,8.49-.43.43-.14.97-.48,1.24-.86.17,1.76.31,3.19.32,4.97Z"/>
        <path class="cls-120" d="M61.29,97.18c.18.23,0,.21,0,.22l-.59,1.3c.02-.37-.19-.4-.27-.54-.47-.77-.71-1.53-1.51-2.11,1.1.62,1.05.95,2.38,1.14Z"/>
        <path class="cls-117" d="M60.86,98.8s-.24.56-.43-.32c-.02-.1.01-.22,0-.32.08.14.29.17.27.54l.59-1.3c-.11.48-.22.95-.43,1.41Z"/>
        <g>
          <path class="cls-4" d="M12.32,94.8c.01.41-.38,2.18-.43,2.92-.14,1.93-.35,3.77-.32,5.73.03,2.32.69,4.79.76,6.59.02.51-.35,1.6-.92,1.73-.93.22-4.7-.22-6-.22v-.11c.16.05.21-.09.32-.11.73-.1,5.21.13,5.41-.05.21-.59-.03-1.23-.11-1.84-.01-.09-.2-.02-.22-.11-.05-.33.03-1.18,0-1.51-.16-1.58-.29-3.34-.22-5.14s.29-3.87.54-5.62c.15-1.05.15-2.1.76-3.03.15.09.43.65.43.76Z"/>
          <path class="cls-32" d="M4.42,96.1c-.35,1.49-.45,3.93-.54,5.51-.54-.04-1.56-.08-1.73.59-.1.42.22.4.22.43-.08,1.03-.16,2.04-.11,3.08.1,1.91.18,3.82,1.19,5.41.15.24.33.13.11.65-.21-.05-.52-.31-.65-.49-1.58-2.09-1.14-12.12-.43-14.76l.16.76c.02-1.16.8-1.24,1.78-1.19Z"/>
          <path class="cls-72" d="M5.4,111.45v.11s-.08.22-.16.22c-.41,0-1.35.08-1.68,0,.22-.52.04-.41-.11-.65.1-.31,1.05-.43,1.08-.49.09-.18-.82-3.41-.54-4-.2-.42-.66-.18-.86-.27.6-.24.6.07.76-.65.17-3.19.23-6.36.76-9.51.31.24.37-.41.54-.76-.75,5.23-1.34,10.88.22,16Z"/>
          <path class="cls-89" d="M5.29,93.94s0,.07,0,.11c-.03.23-.15.42-.22.65-.35.21-.54.85-1.03.97-1.29.32-.85-1.26-1.46.65.23-1.83.66-2.72,2.7-2.38Z"/>
          <path class="cls-1" d="M5.07,94.69c-.06.22-.29.6-.32.76,0,.04-.27.42-.32.65-.99-.05-1.77.03-1.78,1.19l-.16-.76c.06-.21.1-.2.11-.22.61-1.91.17-.33,1.46-.65.49-.12.68-.76,1.03-.97Z"/>
          <path class="cls-22" d="M7.34,94.04c-.02.38-.52.14-.81.32-1.93,1.2.45,2.8,1.89,2.59-.08.58,1.22,1.01,1.03,1.84l.92-2.38c.13-.23.18-.63.54-.65-.02.34-.12,1.33.22,1.3-.25,1.75-.47,3.86-.54,5.62-.15-.39-.59-.68-.76-.11,0-.22-.05-.55-.11-.76-.32-1.18-1.57-1.79-2.7-1.51-.61.15-.97.58-1.41.97s-.54,1.19-.97.86c.07-2.45.5-4.86.81-7.24-.18.15-.16.32-.27.54-.17.35-.24,1-.54.76.04-.25.12-.5.11-.76.04-.16.26-.54.32-.76s.18-.42.22-.65c.67.3,1.35.02,2.05,0Z"/>
          <path class="cls-19" d="M11.88,94.04c-.61.93-.61,1.98-.76,3.03-.34.03-.24-.96-.22-1.3.03-.5.26-.87.16-1.3-.66.52-1.7.72-1.78,1.73-.2.02-.84.62-.86.76-1.44.21-3.82-1.39-1.89-2.59.29-.18.79.05.81-.32.72-.02,4.15-.22,4.54,0Z"/>
          <path class="cls-110" d="M4.64,102.15c-.09,3.1.08,6.24,1.08,9.19-.12.02-.16.16-.32.11-1.56-5.12-.96-10.77-.22-16,.11-.22.09-.39.27-.54-.31,2.38-.74,4.8-.81,7.24Z"/>
          <path class="cls-70" d="M3.88,101.61c-.06,1.13.2,3.15,0,4.11-.16.72-.16.41-.76.65-.52-.23-.49-.25-.86-.65-.05-1.04.03-2.05.11-3.08,0-.03-.32-.02-.22-.43.17-.68,1.19-.64,1.73-.59Z"/>
          <path class="cls-13" d="M3.13,106.37c.2.09.66-.15.86.27-.28.59.63,3.82.54,4-.03.05-.98.17-1.08.49-1.01-1.59-1.09-3.5-1.19-5.41.38.4.35.42.86.65Z"/>
          <path class="cls-77" d="M4.64,96.21c-.53,3.15-.59,6.33-.76,9.51.2-.95-.06-2.98,0-4.11.09-1.58.19-4.03.54-5.51.06-.23.32-.61.32-.65.01.26-.07.5-.11.76Z"/>
          <path class="cls-104" d="M7.02,100.31c.88.42-.6.38-.27.76.69-.22,1.01.03,1.57.22v.11c-.76-.47-.43.15-.54.27-.3.34-.68.45-.76,1.08.48.55,1.3.12,1.51-.49l.05.97.38-.81c-.13,1.38-.86,1.81-2.16,1.68-1.06-.28-1.32-.7-1.35-1.84l-.16,1.08c-.19-.79.01-1.33.32-2.05.43-.39.8-.83,1.41-.97Z"/>
          <path class="cls-136" d="M9.72,101.83c.06.21.12.54.11.76-.01.44-.22.92-.43,1.3l-.05-.65c-.77,1.13-1.4,1.17-2.54.86,1.3.13,2.03-.3,2.16-1.68l-.38.81-.05-.97-.22-.86v-.11c.47.15.88.54,1.41.54Z"/>
          <path class="cls-143" d="M10.37,96.42l-.92,2.38c.19-.83-1.11-1.26-1.03-1.84.02-.14.67-.74.86-.76.8-.07.56.44.59,1.08.14-.3.32-.58.49-.86Z"/>
          <path class="cls-7" d="M9.72,101.83c-.53,0-.94-.39-1.41-.54-.56-.18-.88-.43-1.57-.22-.33-.37,1.15-.34.27-.76,1.13-.27,2.38.33,2.7,1.51Z"/>
          <path class="cls-60" d="M10.91,95.77c-.36.01-.41.42-.54.65-.16.29-.34.56-.49.86-.04-.64.21-1.15-.59-1.08.09-1.01,1.12-1.21,1.78-1.73.1.42-.13.79-.16,1.3Z"/>
          <path class="cls-99" d="M6.8,104.1c1.14.3,1.77.26,2.54-.86l.05.65c-.94,1.66-3.65,1.41-4.11-.54l.16-1.08c.03,1.14.29,1.56,1.35,1.84Z"/>
          <g>
            <path class="cls-43" d="M5.61,101.29c-.31.73-.51,1.27-.32,2.05.46,1.96,3.17,2.2,4.11.54.22-.38.42-.85.43-1.3.17-.57.61-.28.76.11-.07,1.8.06,3.55.22,5.14.03.34-.05,1.18,0,1.51.01.09.2.02.22.11.08.61.32,1.24.11,1.84-.2.18-4.67-.05-5.41.05-1-2.95-1.17-6.08-1.08-9.19.44.33.54-.47.97-.86Z"/>
            <path class="cls-52" d="M8.37,109.72c.85-.1.87,1.1.22,1.19-.76.1-1.11-1.08-.22-1.19Z"/>
          </g>
          <path class="cls-25" d="M8.32,101.4l.22.86c-.22.6-1.03,1.04-1.51.49.08-.63.46-.74.76-1.08.11-.12-.21-.74.54-.27Z"/>
        </g>
        <g>
          <path class="cls-130" d="M78.26,95.34c.4,2.19.58,3.94.65,6.16.05,1.6.03,3.22-.11,4.81l1.62-.27c-.21.67-1.22.2-1.41.38-.15.14-.5,3.57-.59,4.05.3-.07,1.08.09,1.3,0,.2-.08.31-.77.38-.97l.32.22c-.54,1.69-.84,2.15-2.76,2.05-.16,0-.35-.32-.38-.32,1.29-3.39,1.32-7.46,1.19-11.08-.05-1.36-.54-3.22-.43-4.49.01-.13.13-.63.22-.76.01.07-.01.15,0,.22Z"/>
          <path class="cls-132" d="M83.13,99.23c-.02,1.07.35,2.1.32,3.19,0,.08-.21.03-.22.11-.03.99.1,2.15-.32,3.03.03-.5.11-.96.11-1.46,0-.23.05-1.44-.05-1.51l-1.68.11c0-.99-.12-2.45-.22-3.46.61-.11,1.63-.46,2.05,0Z"/>
          <path class="cls-67" d="M81.07,106.15c.07-.66.08-1.39.11-2.05h1.84c0,.5-.08.96-.11,1.46.42-.87.29-2.04.32-3.03,0-.08.21-.03.22-.11.02-1.09-.34-2.12-.32-3.19.64.7.52,4.8.22,5.78-.44,1.41-.92,1.13-2.27,1.14Z"/>
          <path class="cls-69" d="M79.78,94.15c.11.09.13.09.22.22-.07.08-.01.79,0,.86l-1.73.11c-.01-.07.01-.15,0-.22-.03-.16-.38-1.02-.27-1.08l1.78.11Z"/>
          <path class="cls-103" d="M71.23,95.13c.66,4.45,1.22,8.6,0,13.08-.35.02-.23-.73-.22-.92.11-1.51.3-2.96.32-4.49.01-.65,0-1.3,0-1.95-.02-1.79-.16-3.22-.32-4.97-.02-.25.02-.51,0-.76.02.02.15,0,.22,0Z"/>
          <path class="cls-94" d="M77.4,94.15c.34,1.91.84,3.93.86,5.89,0,.77.04,2.36-.54,2.76.04-.9-.39-1.84-1.19-2.27-1.03-.56-1.73-.44-2.59.32-.38.34-.54.43-.65.97l-.65.49c-.13-.52-.07-.93,0-1.46.2-1.55.73-3.04.76-4.65,0-.09.13-.21.11-.49-.02-.31-.35-.57-.43-.7-.04-.06.28-.19-.05-.43-.07-.05-1.33-.67-1.35-.43,0,0-.17-.1-.22-.11.48-.28,5.16-.03,5.95.11Z"/>
          <path class="cls-6" d="M73.07,95.02c-.57.5-.62,1.3.32,1.19-.03,1.61-.55,3.1-.76,4.65-.32-1.48-.1-5.54-.97-6.7.02-.24,1.28.38,1.35.43.33.24.02.37.05.43Z"/>
          <g>
            <path class="cls-112" d="M71.67,94.15c.88,1.16.65,5.22.97,6.7-.07.53-.13.94,0,1.46l.65-.49c-.24,1.23.34,2.84,1.84,2.65-.44-.3-1.26-.55-1.24-1.24.99,1.59,2.6,1.11,3.57-.22l-.22,1.08c.35-.42.46-.78.49-1.3.58-.4.55-1.98.54-2.76-.02-1.96-.52-3.98-.86-5.89.1.02.19-.23.32-.05-.12.37.02,1.46.32,1.78-.11,1.27.38,3.13.43,4.49.13,3.62.1,7.69-1.19,11.08-.98-.02-5.64.35-6.11.11-.29-.15-.56-1.28-.59-1.62.33-.11.54-1.35.65-1.73,1.22-4.48.66-8.63,0-13.08-.05-.34-.19-.84.22-1.08.05.01.21.1.22.11Z"/>
            <path class="cls-56" d="M73.67,109.5c1.14-.26,1.07,1.25.22,1.3s-.91-1.14-.22-1.3Z"/>
          </g>
          <path class="cls-30" d="M79.99,95.23c.4,2.16.93,4.31.76,6.54-.19-.9-1.02.15-1.84-.27-.07-2.23-.25-3.98-.65-6.16l1.73-.11Z"/>
          <path class="cls-44" d="M80.1,109.5c-.07.2-.18.89-.38.97-.22.09-.99-.07-1.3,0,.09-.48.45-3.91.59-4.05.19-.18,1.2.29,1.41-.38l.11,1.46c-.18.67-.2,1.34-.43,2Z"/>
          <path class="cls-161" d="M83.02,104.1h-1.84c.02-.45.11-.99.11-1.41l1.68-.11c.1.07.05,1.28.05,1.51Z"/>
          <g>
            <path class="cls-85" d="M81.07,99.23c.09,1.01.21,2.47.22,3.46,0,.42-.09.96-.11,1.41-.02.67-.04,1.4-.11,2.05-.11,1.1-.32,2.53-.65,3.57l-.32-.22c.23-.66.25-1.33.43-2l-.11-1.46-1.62.27c.13-1.59.16-3.21.11-4.81.81.42,1.65-.63,1.84.27.17-2.23-.36-4.38-.76-6.54-.01-.07-.07-.79,0-.86.62.91.97,3.71,1.08,4.86Z"/>
            <path class="cls-74" d="M80.8,102.91c.08,0,.09,1.04,0,1.19-.08,0-.08-1.19,0-1.19Z"/>
          </g>
          <g>
            <path class="cls-102" d="M76.53,100.53c.79.43,1.23,1.37,1.19,2.27-.02.52-.13.88-.49,1.3l.22-1.08c-.97,1.32-2.58,1.8-3.57.22-.02.69.8.95,1.24,1.24-1.5.19-2.08-1.42-1.84-2.65.11-.54.27-.64.65-.97.41-.13.65-.13.59.32.53-1.01.53-.24.65-.22.6.14.97-.02,1.41.65.22-.07-.37-.82-.59-.81l.54-.27Z"/>
            <g>
              <path class="cls-47" d="M76.53,100.53l-.54.27c.22-.01.82.74.59.81-.44-.67-.81-.51-1.41-.65-.12-.03-.12-.79-.65.22.05-.46-.19-.46-.59-.32.87-.77,1.56-.88,2.59-.32Z"/>
              <path class="cls-35" d="M74.8,102.58c.49.33,1.11.74,1.51-.11.76-.03-.1.89-.11,1.14.17.04.35-.26.43-.38-.91,2.05-3.7,0-2.43-1.73l-.05,1.46c.26-.08,0-.7.16-.81.06-.04.34.33.49.43Z"/>
              <path class="cls-137" d="M76.21,101.5c.27.33.3.56.11.97-.4.85-1.02.44-1.51.11-.18-.33.17-1.31.43-1.41.08.42.71.74.97.32Z"/>
              <path class="cls-3" d="M76.21,101.5c-.27.42-.89.1-.97-.32.26-.1.8.12.97.32Z"/>
              <path class="cls-35" d="M76.64,103.23s.02-.45.16-.54c.25.34-.14.48-.16.54Z"/>
            </g>
          </g>
          <g>
            <path class="cls-140" d="M73.4,96.21c-.94.12-.89-.69-.32-1.19.08.13.41.4.43.7.02.28-.11.4-.11.49Z"/>
            <path class="cls-59" d="M73.02,95.56l.22.43c-.31-.08-.55-.17-.22-.43Z"/>
          </g>
        </g>
      </g>
      <g>
        <path class="cls-105" d="M15.13,92.21s.18.19.22.22c.14.65-.34,1.91.32,2.27-1.11.03-2.24.2-3.35.11,0-.1-.28-.67-.43-.76-.39-.22-3.82-.02-4.54,0s-1.38.3-2.05,0c0-.04,0-.07,0-.11.77-5.93-.83-14.72.32-20.22.79.25,1.28.19,2,.65,4.47,2.84,2.43,13.57,7.51,17.84Z"/>
        <path class="cls-58" d="M13.18,21.61l-2.49,10.11-.65.27c-1.51-.03-3.04-.18-4.54-.32-.05-2.98-.22-5.99-.11-8.97,2.57-.21,5.23-.71,7.78-1.08Z"/>
        <path class="cls-73" d="M77.61,52.64c.74,5.09-.23,11.57.43,16.81-.06.26-2.62,4.25-2.81,4.43s-.49.02-.76.27c.98-3.31,2.36-16.58,1.19-19.51-.75-1.88-3.57-2.2-5.41-2.76l7.35.76Z"/>
        <path class="cls-131" d="M15.24,21.18c-.07.01-.15-.01-.22,0-.59.09-1.34.36-1.84.43-2.55.37-5.21.87-7.78,1.08-.04,0-.07,0-.11,0v-1.84l9.68-1.73.27.16v1.89Z"/>
        <path class="cls-64" d="M10.05,31.99c.98.02,1.95-.04,2.92-.05-.85.25-1.72.36-2.59.49-1.62.24-3.22.41-4.86.32,0-.36,0-.72,0-1.08,1.5.15,3.03.29,4.54.32Z"/>
        <path class="cls-76" d="M37.83,54.04c.02,2.9.14,6.04,0,8.92-.05,1.03-.54,2.56-.54,3.41,0,.04,0,.07,0,.11.03.35.1.53.38.76l7.19.11c-1.4,1.78-2.92,3.46-4.38,5.19-.5-.01-.98-.25-1.46-.32-.71-.11-1.41-.32-2.11-.43-1.33-.21-3.16.37-4.05-1.08,2.33-4.84,2.96-14.39,1.08-19.24-.1-.26,0-.21,0-.22l3.84-2.7c.11,1.83.04,3.68.05,5.51Z"/>
        <path class="cls-157" d="M68.53,94.8c-1.98-.04-3.97-.01-5.95,0,2.74-.6,5.1.13,7.14-2.16l-1.19,2.16Z"/>
        <path class="cls-122" d="M17.83,68.96l-2.7.54c-.49.03-.25-.1-.59-.11-.03,0,0,.3-.54.22-.09-.01-.04-.22-.05-.22-.88.01-1.81-.05-2.7,0-.08-.22.61-.32.7-.32.88-.08,1.87-.07,2.76-.11,1.32-.05,2.35-.11,3.68-.22.06.35-.29.18-.54.22Z"/>
        <g>
          <path class="cls-87" d="M70.26,51.88c1.83.56,4.66.88,5.41,2.76,1.17,2.93-.21,16.2-1.19,19.51-.21.71-.64,1-1.3,1.24-.03.1,1.17.39,1.03.81l-1.35-.59c1.31.87,2.8,1.48,4.11,2.32-.13.11-.96.75-.97.81-.02.09.36,1.03.32,1.73-.05.94-1.2,3.99-1.84,4.65-.29.31-.52-.25-.86,0-.99,2.35-2.2,5.61-3.89,7.51-2.03,2.29-4.4,1.56-7.14,2.16-1.61.01-3.24.11-4.86.11-5.92,0-11.81-.1-17.73-.11-4.04-.32-8.12-.03-12.16-.22-3.14-.15-10.06-.41-12.49-2.16-.04-.03-.17-.18-.22-.22l.22-22.7c.73-.06,1.95-.09,2.49-.54.25-.04.6.13.54-.22,1.95-.15,3.88-.44,5.84-.49-.37,1.19-2.4,4.85-2.16,5.95.1.47,2.18,1.68,2.65,1.78,1.15.25,3.56-.2,4.54-.86,1.23-.83.36-.83.38-1.03.01-.15,1.84-1.39,2.27-1.95.15-.2.89-1.28.97-1.46.9,1.45,2.72.87,4.05,1.08.7.11,1.4.32,2.11.43-.3,2.35-6.69,6.62-3.51,8.86,2.15,1.52,5.02.27,7.24,1.41,1.64-1.78,3.67-3.19,5.14-5.14,1.28-1.7,1.24-2.4,1.95-4.11,1.84-4.45,8.31-6.65,12.38-9.13,2.19-1.34,4.36-2.76,6.43-4.27v-8.38c.52.17,1.09.27,1.62.43Z"/>
          <path class="cls-5" d="M61.78,86.69c1.07.36,2.21.64,3.14,1.3-.43-.85,2.36-.08,2,.7-.27.59-1.97-.31-2.32-.49-.27-.13,0-.28-.11-.32-.88-.41-1.87-.67-2.7-1.19Z"/>
          <path class="cls-54" d="M63.18,88.53l-1.62,5.19c-.6-1.36.31-1.86.7-2.86.02-.06-.24-.05-.22-.11.06-.15.3-.15.32-.22.25-.54.36-1.44.81-2Z"/>
          <path class="cls-34" d="M15.34,69.5c-.07,0-.15,0-.22,0l2.7-.54c-.54.45-1.76.48-2.49.54Z"/>
          <path class="cls-124" d="M59.29,85.94l2.32.7c-.03.13-2.18-.42-2.32-.7Z"/>
        </g>
        <path class="cls-148" d="M15.34,42.26c-1.49-.27-5.47-.35-6.16-1.89-1-2.22.83-5.69,1.19-7.95.87-.13,1.75-.24,2.59-.49-.97.01-1.94.07-2.92.05l.65-.27,2.49-10.11c.5-.07,1.25-.35,1.84-.43l.32,21.08Z"/>
        <path class="cls-48" d="M19.02,43.34c-.62-.07-3.2-.2-3.51-.32s-.07-.45-.05-.65c1.32.24,2.66.38,3.95.76l-.38.22Z"/>
        <g>
          <path class="cls-2" d="M15.34,42.26s-.04.08.11.11c-.02.19-.25.52.05.65s2.89.26,3.51.32c1.03.11,2.06.12,3.08.32-.82.42-6.56-.66-6.76-.38l.11,25.3-.76.38c-.89.03-1.88.02-2.76.11-.09,0-.78.1-.7.32-.79.04-1.59.13-2.38.16l3.62-.05-1.41.32h1.73c-.51-.51.81-.29,1.14-.43.01,0-.04.2.05.22.53.08.51-.22.54-.22.34.01.11.14.59.11.07,0,.15,0,.22,0l-.22,22.7c-5.08-4.27-3.04-15-7.51-17.84-.72-.46-1.21-.4-2-.65,0-.01-.19-.05-.11-.27l.27-.16c1.07.15,2.03.09,3.08-.11.24.27,1.73-.01,1.73-.16-1.31-.89-2.83-1.46-4.27-2.11-.13-.06-.43-.22-.49,0-.01-.01-.26.01-.32-.16l.11-22.49,4.86-5.41-4.76-1.51c-.19-2.86-.15-5.73-.22-8.59,1.64.09,3.25-.08,4.86-.32-.36,2.25-2.19,5.73-1.19,7.95.7,1.55,4.67,1.62,6.16,1.89Z"/>
          <path class="cls-14" d="M8.86,73.18c.25-.05.71.03.92-.22-.91-.78-3.17-1.41-3.95-2.05.05-.22.36-.06.49,0,1.44.65,2.96,1.22,4.27,2.11,0,.15-1.49.43-1.73.16Z"/>
          <path class="cls-10" d="M11.07,54.8c.39.03,1.25,1.49,0,1.95-1.81.66-.6-2,0-1.95Z"/>
          <path class="cls-160" d="M13.94,69.4c-.33.14-1.64-.08-1.14.43h-1.73l1.41-.32-3.62.05c.79-.03,1.59-.12,2.38-.16.89-.05,1.82.01,2.7,0Z"/>
        </g>
        <path class="cls-20" d="M68.64,17.72c.11.64-.11,1.33-.11,1.95l-21.62-.76c7.12-.37,14.69-.43,21.73-1.19Z"/>
        <path class="cls-139" d="M68.64,48.1c-1.66-2.04-4.04-3.17-6.05-4.76.15.07.36.22.54.16-.17-.15-.6-.69-.27-.81l5.78-.32c0,1.91.03,3.82,0,5.73Z"/>
        <g>
          <path class="cls-41" d="M77.18,15.67v1.35l-3.24,4.76,3.78,2.05-.22,22.49c-.29,1.01-2.69,4.56-2.7,5.3-.01.68,2.15.28,2.76.49.11.08.03.4.05.54l-7.35-.76c-.53-.16-1.1-.26-1.62-.43-.24-.08-.43-.22-.65-.32.18,0,.57.14.65-.05.01-.99-.02-1.98,0-2.97.03-1.91,0-3.82,0-5.73.03-7.57-.11-15.14-.11-22.7,0-.61.22-1.31.11-1.95,2.75-.3,5.92-.7,8.32-2.05.07,0,.14,0,.22,0Z"/>
          <path class="cls-38" d="M74.64,31.56c.32-.1.53.74.11.76-.3.01-.4-.66-.11-.76Z"/>
        </g>
        <g>
          <path class="cls-11" d="M79.78,94.15l-1.78-.11c-.11.06.24.92.27,1.08-.09.12-.21.63-.22.76-.3-.32-.45-1.42-.32-1.78-.14-.17-.23.07-.32.05-.79-.14-5.47-.39-5.95-.11-.41.25-.27.74-.22,1.08-.07,0-.2.02-.22,0-.17-.15-.08-.3-.16-.32-.43-.11-1.76.01-2.32,0l1.19-2.16c1.69-1.91,2.91-5.16,3.89-7.51.34-.25.57.31.86,0,.63-.66,1.79-3.71,1.84-4.65.04-.7-.34-1.64-.32-1.73.01-.06.84-.7.97-.81.32.21.67.37.97.59l-.32,15.24c.9.24,1.37-.25,2.16.38Z"/>
          <path class="cls-118" d="M75.18,91.45c.35.09-.02.71-.11.22-.02-.13.08-.22.11-.22Z"/>
        </g>
        <path class="cls-65" d="M30.8,42.8c-1.03,1.44-1.99,2.93-2.92,4.43-.03,0-.08.01-.11,0-.1-.03-.22.33-.43-.16-.07-.27.11-.81.22-1.08.35-.93,2.45-3.81,3.14-4.86,2.59-3.98,5.48-7.78,8.54-11.41l-8.43,13.08Z"/>
        <path class="cls-15" d="M54.05,48.32c-.58.56-6.25,4.51-6.65,4.54-.49.04-1.69-.92-2.22-1.08,0-.99-.31-2.03,0-3.03l3.62,2.49c.29-.07.97-1.74,1.3-1.95.65-.4,3.09-.63,3.95-.97Z"/>
        <g>
          <path class="cls-27" d="M46.91,18.91l21.62.76c0,7.56.14,15.14.11,22.7l-5.78.32c-.32.12.1.66.27.81-.18.06-.39-.1-.54-.16-.11-.09-.2-.34-.43-.27-.02.23.31.22.43.27,2.01,1.59,4.4,2.71,6.05,4.76-.02.99.01,1.98,0,2.97-.08.19-.47.06-.65.05-.02,0-.12-.25-.32-.05.16.27.26.02.32.05.22.11.4.24.65.32v8.38c-2.07,1.51-4.24,2.93-6.43,4.27-4.07,2.49-10.53,4.69-12.38,9.13-.71,1.71-.67,2.41-1.95,4.11-1.47,1.95-3.5,3.36-5.14,5.14-2.22-1.14-5.09.11-7.24-1.41-3.17-2.24,3.21-6.51,3.51-8.86.48.07.96.31,1.46.32,1.46-1.73,2.98-3.41,4.38-5.19.18-.23.78-.5.76-.86-.07-.66-.29-1.27-.32-1.95-.24-4.28-.11-8.48-.11-12.76.53.16,1.72,1.12,2.22,1.08.4-.03,6.07-3.98,6.65-4.54.24-.23.84-.62.86-.97l-13.51-20.22c-.43-.11-1.42,1.97-1.62,2.22-.16.18-.38.19-.54.38-3.06,3.63-5.95,7.43-8.54,11.41-.69,1.05-2.78,3.94-3.14,4.86-.1.27-.29.81-.22,1.08.22.49.34.13.43.16-.04.4.31.63.54.86,1.42,1.46,3.68,2.14,5.19,3.51l.43-.16c1.88,4.85,1.25,14.4-1.08,19.24-.09.18-.82,1.26-.97,1.46-.43.55-2.26,1.8-2.27,1.95-.02.2.85.2-.38,1.03-.98.66-3.39,1.11-4.54.86-.47-.1-2.55-1.32-2.65-1.78-.23-1.09,1.79-4.75,2.16-5.95-1.96.04-3.89.34-5.84.49-1.32.1-2.36.17-3.68.22l.76-.38-.11-25.3c.2-.28,5.94.8,6.76.38-1.02-.21-2.06-.21-3.08-.32l.38-.22c-1.29-.38-2.63-.52-3.95-.76-.15-.03-.1-.11-.11-.11l-.32-21.08c.07-.01.15.01.22,0,.04,0,.07,0,.11,0l.05,13.19c1.78-3.28,3.66-7.09,7.51-8.27l-6.81-5.24c10.18-1.48,20.55-1.41,30.81-1.95Z"/>
          <g>
            <path class="cls-138" d="M26.21,63.56c-.26.56-1.7,4.34-1.89,4.49-.15.11-.77.03-1.03.16l2.92-4.65Z"/>
            <path class="cls-17" d="M55.07,65.29l2.22.59c-.62,0-1.87-.1-2.22-.59Z"/>
            <path class="cls-40" d="M53.78,64.96c.35.06.69.15,1.03.27-.02.11-1.04.04-1.03-.27Z"/>
            <path class="cls-139" d="M62.59,43.34c-.12-.05-.45-.04-.43-.27.23-.07.32.18.43.27Z"/>
            <path class="cls-115" d="M67.99,51.13c-.06-.03-.17.22-.32-.05.2-.19.31.05.32.05Z"/>
          </g>
        </g>
        <g>
          <path class="cls-127" d="M15.34,21.18c.11-.02.57-.3.76-.32l6.81,5.24c-3.85,1.18-5.74,4.99-7.51,8.27l-.05-13.19Z"/>
          <path class="cls-37" d="M17.88,26.91c.16-.02.44.6.11.65-.16.02-.44-.6-.11-.65Z"/>
        </g>
        <g>
          <path class="cls-123" d="M44.32,47.23v12.92c-.5.18-.37-1.88-.81-1.57l1.14,4c.08.54.17,1.28.32,1.78.05.16.11.55.32.16.04.67.25,1.28.32,1.95-2.04-.13-4.01-.22-6.05-.11v-.22c.63-.04,1.36-.21,1.95-.22.43,0,.32.22.38.22.95,0,1.91-.02,2.86-.05l-3.24-1.78v-19.89c.8.4,2.03,2.2,2.81,2.81Z"/>
          <path class="cls-75" d="M54.91,47.34h-.54c-1.43-.77-3.1-1.04-4.65-1.51-.16-.56-.07-1.05-.22-1.62-.42-1.67-1.69-3.25-1.84-5.19-.04-.51-.04-1.05.16-1.51l.16.11c.34.5.58,1.08,1.03,1.51-.02-.36-.72-1.43-1.03-1.51-.31-.46-.52-.84-.86-1.3-1.64-2.66-3.85-5.06-5.19-7.89-.19-.4-.31-.82-.54-1.19v-.11l13.51,20.22Z"/>
          <path class="cls-53" d="M38.05,54.04h-.22c0-1.84.05-3.68-.05-5.51l-3.84,2.7c-.15-.35-.9-1.91-1.14-2.05-.77-.47-3.51-.59-4.49-1.08-.23-.24-.58-.46-.54-.86.03.01.07,0,.11,0,.4.09.69.07,1.08.11,2.19.23,5.15-.17,5.46,2.59l4.27-2.81c-1.07,2.07-.62,4.53-.65,6.92Z"/>
          <path class="cls-152" d="M54.05,47.34c.11,0,.22,0,.32,0h.54c-.02.35-.62.74-.86.97-.85.34-3.3.57-3.95.97-.33.2-1,1.88-1.3,1.95l-3.62-2.49-.65-1.08c.04-.07-.09-.32.11-.32,1.21.91,2.8,1.55,3.95,2.59.16-.05.38-1.29.49-1.46.51-.83,3.91-1.06,4.97-1.14Z"/>
          <path class="cls-154" d="M45.18,48.75c-.31.99,0,2.04,0,3.03,0,4.28-.14,8.48.11,12.76-.21.38-.28,0-.32-.16-.16-.51-.24-1.24-.32-1.78-.17-1.12-.07-1.6-.11-2.54-.07-1.69-.34-11.71,0-12.38l.65,1.08Z"/>
          <path class="cls-106" d="M45.61,66.48c.02.37-.57.63-.76.86l-7.19-.11c-.28-.22-.35-.41-.38-.76.75-.05,1.52-.07,2.27-.11,2.04-.12,4.02-.02,6.05.11Z"/>
          <path class="cls-45" d="M33.94,51.23s-.1-.04,0,.22l-.43.16c-1.51-1.37-3.77-2.05-5.19-3.51.98.49,3.72.61,4.49,1.08.23.14.98,1.7,1.14,2.05Z"/>
          <path class="cls-128" d="M35.56,44.21c.26.02.41,0,.65,0,1.26.03,4.44-.22,5.3.22v21.51c-.59.01-1.32.17-1.95.22-.79.05-1.55.04-2.27.22,0-.85.49-2.37.54-3.41.14-2.88.02-6.02,0-8.92h.22c-.04,2.9.08,5.81-.11,8.7.32.19.34-.11.43-.32.39-.9.14-2.42.76-3.35v5.08l.22.65-.11-17.73c-.17-.31-.4-.03-.43-.05-.31-.21-.89-.67-1.35-.65-.68.04-2.8,1.88-3.51,1.73-.34-.63-.39-1.24-.43-1.95-.08-1.25.1-1.13.32-2.16.55.13,1.17.16,1.73.22Z"/>
          <path class="cls-21" d="M39.56,66.15v.22c-.75.04-1.52.06-2.27.11,0-.04,0-.07,0-.11.72-.18,1.48-.16,2.27-.22Z"/>
          <path class="cls-125" d="M46.26,44.42c.82.23,2.1,1.02,3.35,1.41l-.38,2.27.22-.32c1.51-.18,3.09-.59,4.59-.43-1.06.07-4.46.3-4.97,1.14-.11.17-.33,1.41-.49,1.46-1.15-1.04-2.74-1.69-3.95-2.59-.2-.15-.31-.1-.32-.11-.78-.61-2.01-2.41-2.81-2.81-.86-.43-4.04-.19-5.3-.22-.76-.25-1.75-1.12-1.62-2,.14-.97,2.35-4.17,2.81-5.41.79-2.12.56-3.3-1.41-1.24l5.41-8.22c.05,1.4.41,6.26.11,7.3-.11.38-2.76,2.56-3.14,3.14l3.08-2.54.05,8.92c1.43.21,3.38-.11,4.76.27Z"/>
          <path class="cls-36" d="M41.51,65.94v-1.62l3.24,1.78c-.95.04-1.91.04-2.86.05-.06,0,.06-.22-.38-.22Z"/>
          <path class="cls-31" d="M44.64,47.34c-.19,0-.07.25-.11.32-.34.67-.07,10.68,0,12.38.04.94-.06,1.42.11,2.54l-1.14-4c.44-.31.31,1.74.81,1.57v-12.92s.12-.04.32.11Z"/>
          <path class="cls-8" d="M41.94,28.42c-.1.13-.14,1.05-.11,1.14.15.49,4.1,5.47,4.76,6.32.04.83.36,2.09.65,2.86.06.15.2.47.43.27.15,1.94,1.41,3.52,1.84,5.19l-3.24.22c-1.38-.38-3.32-.06-4.76-.27l-.05-8.92-3.08,2.54c.37-.58,3.02-2.75,3.14-3.14.3-1.03-.06-5.9-.11-7.3,0-.04,0-.07,0-.11.23.37.35.79.54,1.19Z"/>
          <path class="cls-33" d="M54.37,47.34c-.11,0-.22,0-.32,0-1.51-.16-3.09.25-4.59.43l-.22.32.38-2.27s.08-.01.11,0c1.54.48,3.22.74,4.65,1.51Z"/>
          <path class="cls-101" d="M49.51,44.21c.15.58.05,1.07.22,1.62-.03-.01-.08.01-.11,0-1.25-.39-2.53-1.18-3.35-1.41l3.24-.22Z"/>
          <path class="cls-50" d="M47.13,36.32c-.08-.1-.46-.33-.54-.43-.65-.85-4.61-5.84-4.76-6.32-.03-.09,0-1,.11-1.14,1.34,2.83,3.55,5.23,5.19,7.89Z"/>
          <path class="cls-159" d="M47.13,36.32c.35.46.56.84.86,1.3l-.16-.11c-.2.46-.2,1-.16,1.51-.23.2-.38-.12-.43-.27-.29-.77-.61-2.03-.65-2.86.08.1.46.33.54.43Z"/>
          <path class="cls-159" d="M47.99,37.61c.31.09,1.01,1.15,1.03,1.51-.44-.43-.69-1.01-1.03-1.51Z"/>
          <path class="cls-12" d="M38.05,54.04c.03-2.38-.43-4.85.65-6.92,0,0,.13.02.11-.11.04.02.26-.26.43.05l.11,17.73-.22-.65v-5.08c-.62.93-.36,2.45-.76,3.35-.1.22-.11.52-.43.32.19-2.9.07-5.8.11-8.7Z"/>
          <path class="cls-49" d="M38.8,47.02c.02.12-.1.1-.11.11l-4.27,2.81c-.31-2.77-3.27-2.36-5.46-2.59.08-.18.48-.12.65-.11.93.07,2.18.16,3.08.32.49.09.91.47,1.24.54.71.15,2.83-1.69,3.51-1.73.46-.02,1.05.44,1.35.65Z"/>
          <path class="cls-129" d="M33.51,46.15c.05.7.09,1.32.43,1.95-.33-.07-.76-.45-1.24-.54-.9-.16-2.15-.26-3.08-.32-.05-.28.05-.32.27-.43.27-.13,3.07-.99,3.24-.97.14.02.12.41.38.32Z"/>
          <g>
            <path class="cls-98" d="M41.4,27.13v.11s0,.07,0,.11l-5.41,8.22c-1.47,1.54-3.81,5.31-5.19,7.24l8.43-13.08c.16-.18.38-.19.54-.38.2-.24,1.19-2.32,1.62-2.22Z"/>
            <path class="cls-146" d="M36.21,44.21c-.24,0-.39.02-.65,0l-2.65-2.16.05,1.14c.92-.77,1.06-.07.86.81-.23,1.03-.41.91-.32,2.16-.26.09-.23-.31-.38-.32-.17-.02-2.98.84-3.24.97-.22.11-.32.15-.27.43-.16-.01-.57-.07-.65.11-.39-.04-.68-.02-1.08-.11.93-1.5,1.89-2.99,2.92-4.43,1.38-1.93,3.72-5.71,5.19-7.24,1.97-2.06,2.2-.88,1.41,1.24-.46,1.24-2.67,4.43-2.81,5.41-.13.88.87,1.75,1.62,2Z"/>
            <path class="cls-83" d="M35.56,44.21c-.56-.05-1.18-.09-1.73-.22.19-.88.06-1.58-.86-.81l-.05-1.14,2.65,2.16Z"/>
            <path class="cls-46" d="M33.67,41.61c.15.23.15.31,0,.54-.09-.04-.09-.5,0-.54Z"/>
          </g>
        </g>
      </g>
    </g>
  </g>
</svg>