<?xml version="1.0"?><!DOCTYPE svg  PUBLIC '-//W3C//DTD SVG 1.1//EN'  'http://www.w3.org/Graphics/SVG/1.1/DTD/svg11.dtd'><svg enable-background="new 0 0 512 512" height="512px" id="Calque_1" version="1.1" viewBox="0 0 512 512" width="512px" xml:space="preserve" xmlns="http://www.w3.org/2000/svg" xmlns:xlink="http://www.w3.org/1999/xlink"><polygon fill="#20ACC3" points="178.412,94.537 167.456,76.762 145.544,41.213 97.839,81.636 150.605,121.823 "/><polygon fill="#20ACC3" points="315.305,86.083 346.136,36.061 165.863,36.061 196.695,86.083 "/><polygon fill="#20ACC3" points="195.2,106.083 161.431,139.221 161.431,372.78 195.198,405.913 316.802,405.913 350.568,372.78   350.568,139.222 316.802,106.083 "/><polygon fill="#20ACC3" points="141.431,139.976 91.881,102.239 91.881,409.764 141.431,372.022 "/><polygon fill="#20ACC3" points="361.394,121.825 414.161,81.637 366.458,41.211 333.59,94.536 "/><polygon fill="#20ACC3" points="370.568,372.022 420.119,409.761 420.119,102.239 370.568,139.978 "/><polygon fill="#20ACC3" points="150.605,390.175 97.841,430.365 145.544,470.785 178.411,417.462 "/><polygon fill="#20ACC3" points="333.591,417.461 366.457,470.786 414.163,430.365 361.395,390.175 "/><polygon fill="#20ACC3" points="196.694,425.913 165.862,475.939 346.137,475.939 315.308,425.913 "/><g opacity="0.3"><polygon points="225.702,86.08 196.702,86.08 165.863,36.06 194.863,36.06  "/><polygon points="225.693,425.92 194.863,475.941 165.863,475.941 196.693,425.92  "/></g><g opacity="0.3"><polygon fill="#FFFFFF" points="286.297,86.08 315.297,86.08 346.136,36.06 317.136,36.06  "/><polygon fill="#FFFFFF" points="286.306,425.92 317.136,475.941 346.136,475.941 315.306,425.92  "/></g><g opacity="0.3"><polygon points="161.43,111.205 150.611,121.825 97.841,81.635 145.541,41.215 154.041,55.005 122.611,81.635  "/><polygon points="116.661,121.106 116.661,390.896 91.881,409.765 91.881,102.236  "/><polygon points="122.621,430.365 154.041,456.993 145.541,470.783 97.841,430.365 150.611,390.175 161.441,400.795  "/></g><g opacity="0.3"><polygon fill="#FFFFFF" points="350.579,111.205 361.398,121.825 414.169,81.635 366.469,41.215 357.969,55.005 389.398,81.635     "/><polygon fill="#FFFFFF" points="395.348,121.106 395.348,390.896 420.129,409.765 420.129,102.236  "/><polygon fill="#FFFFFF" points="389.388,430.365 357.969,456.993 366.469,470.783 414.169,430.365 361.398,390.175    350.568,400.795  "/></g><g><polygon fill="none" points="355.568,137.123 318.845,101.083 193.156,101.083 156.431,137.122 156.431,374.878 193.155,410.913    318.845,410.913 355.568,374.878  "/><polygon fill="none" points="193.903,91.083 318.097,91.083 355.092,31.061 156.906,31.061  "/><polygon fill="none" points="365.252,33.636 327.238,95.31 360.98,128.425 422.14,81.845  "/><polygon fill="none" points="146.431,374.496 146.431,137.499 86.88,92.146 86.88,419.858  "/><polygon fill="none" points="151.018,128.423 184.762,95.311 146.748,33.638 89.859,81.844  "/><polygon fill="none" points="184.761,416.689 151.018,383.573 89.861,430.156 146.748,478.362  "/><polygon fill="none" points="360.982,383.573 327.24,416.688 365.252,478.363 422.142,430.156  "/><polygon fill="none" points="365.568,137.501 365.568,374.496 425.119,419.854 425.119,92.146  "/><polygon fill="none" points="318.099,420.913 193.902,420.913 156.906,480.939 355.092,480.939  "/><path d="M433.351,78.238l-66.072-55.989c-0.902-0.769-2.049-1.188-3.232-1.188H147.951   c-1.263,0-2.432,0.477-3.323,1.269L78.649,78.235c-0.689,0.584-1.208,1.35-1.5,2.202c-0.177,0.521-0.271,1.066-0.271,1.616v347.894   c0,0.339,0.036,0.685,0.104,1.016c0.226,1.096,0.812,2.084,1.665,2.807l65.938,55.873c0.896,0.813,2.081,1.301,3.364,1.301h216.095   c1.244,0,2.412-0.463,3.311-1.252l65.996-55.922c0.854-0.723,1.438-1.716,1.666-2.813c0.068-0.329,0.102-0.669,0.102-1.008V82.053   C435.119,80.583,434.472,79.188,433.351,78.238z M360.98,128.425L327.238,95.31l38.014-61.674l56.891,48.209L360.98,128.425z    M318.845,410.913h-125.69l-36.724-36.035V137.122l36.726-36.039h125.689l36.723,36.04v237.755L318.845,410.913z M318.097,91.083   H193.903l-36.996-60.022h198.185L318.097,91.083z M184.762,95.311l-33.744,33.112L89.859,81.844l56.89-48.207L184.762,95.311z    M146.431,137.499v236.997l-59.553,45.36V92.146L146.431,137.499z M151.018,383.573l33.744,33.113l-38.016,61.673L89.86,430.156   L151.018,383.573z M193.902,420.913H318.1l36.993,60.023H156.906L193.902,420.913z M327.24,416.688l33.742-33.112l61.16,46.581   l-56.895,48.207L327.24,416.688z M365.568,374.496V137.501l59.551-45.355v327.708L365.568,374.496z" fill="#020202"/></g><circle cx="457.128" cy="267.476" fill="#20ACC3" r="12"/><circle cx="457.128" cy="475.939" fill="#20ACC3" r="12"/><circle cx="481.132" cy="53.218" fill="#20ACC3" r="12"/><circle cx="54.13" cy="31.061" fill="#20ACC3" r="12"/><circle cx="30.126" cy="156.202" fill="#20ACC3" r="12"/><circle cx="42.128" cy="338.2" fill="#20ACC3" r="12"/><circle cx="91.881" cy="480.939" fill="#20ACC3" r="12"/><polygon fill="#FECD0E" points="486.077,378.475 499.628,358.073 478.645,370.5 458.245,356.955 470.675,377.935 457.128,398.335   478.104,385.907 498.506,399.45 "/><polygon fill="#FECD0E" points="476.829,168.475 490.38,148.073 469.397,160.5 448.997,146.957 461.427,167.935 447.88,188.335   468.856,175.909 489.258,189.452 "/><polygon fill="#FECD0E" points="44.836,235.024 58.385,214.623 37.405,227.05 17.004,213.507 29.432,234.484 15.885,254.885   36.864,242.459 57.263,256.002 "/><polygon fill="#FECD0E" points="49.829,442.433 63.378,422.031 42.397,434.456 21.997,420.913 34.425,441.893 20.878,462.293   41.856,449.865 62.256,463.408 "/></svg>