<?xml version="1.0"?><svg xmlns="http://www.w3.org/2000/svg" xmlns:xlink="http://www.w3.org/1999/xlink" version="1.1" id="Layer_1" viewBox="0 0 52 52" style="enable-background:new 0 0 52 52;" xml:space="preserve"><g><path d="M48.3099365,17.6299744h-1.0899658c0.0400391-0.289978,0.0699463-0.5799561,0.0699463-0.8800049   c0-3-2.2598877-5.4899902-5.1699219-5.8599854c-0.2299805-3.0499878-2.7900391-5.4599609-5.8900146-5.4599609   c-1.8199463,0-3.5,0.8199463-4.5999756,2.2099609c-1.1099854-1.3900146-2.7900391-2.2099609-4.6099854-2.2099609   c-2.3800049,0-4.4700928,1.3999634-5.4000244,3.5199585c-0.9099121-0.5499878-1.9499512-0.8399658-3.0300293-0.8399658   c-2.6999512,0-5.0200195,1.8399658-5.6999512,4.3499756c-0.7099609-0.289978-1.4799805-0.4500122-2.2700195-0.4500122   c-3.1599121,0-5.7399902,2.5-5.8900146,5.6199951H3.7000732C2.7600098,17.6299744,2,18.3899841,2,19.3199768v2.2900391   c0,0.9299927,0.7600098,1.6900024,1.7000732,1.6900024H4.210083l3.1799316,16.5   c0.3299561,1.6799927,1.8100586,2.9099731,3.5200195,2.9099731h0.3699951c0.3599854,2.1799927,2.25,3.8599854,4.5299072,3.8599854   c2.2800293,0,4.1700439-1.6799927,4.5300293-3.8599854h11.3200684c0.3599854,2.1799927,2.25,3.8599854,4.5400391,3.8599854   c2.2799072,0,4.1699219-1.6799927,4.5299072-3.8599854h0.3599854c1.7199707,0,3.1999512-1.2299805,3.5200195-2.9099731   l3.1799316-16.5h0.5200195C49.2399902,23.3000183,50,22.5400085,50,21.6100159v-2.2900391   C50,18.3899841,49.2399902,17.6299744,48.3099365,17.6299744z M10.6199951,13.5099792   c0.8699951,0,1.7099609,0.25,2.4199219,0.7200317c0.2200928,0.1499634,0.5,0.1699829,0.7401123,0.0499878   c0.2399902-0.1099854,0.4000244-0.3499756,0.4200439-0.6099854c0.1699219-2.2800293,2.0998535-4.0599976,4.3898926-4.0599976   c1.0800781,0,2.1101074,0.3899536,2.9100342,1.1099854c0.1900635,0.1699829,0.4699707,0.2299805,0.7199707,0.1500244   c0.2600098-0.0800171,0.4500732-0.2800293,0.5100098-0.5400391c0.4700928-2,2.2301025-3.3999634,4.2900391-3.3999634   c1.6800537,0,3.1900635,0.9299927,3.9400635,2.4299927c0.1298828,0.25,0.3798828,0.4099731,0.6699219,0.4099731   c0.2800293,0,0.5400391-0.1599731,0.6699219-0.4099731c0.75-1.5,2.2600098-2.4299927,3.9300537-2.4299927   c2.4300537,0,4.4000244,1.9799805,4.4000244,4.4099731c0,0.0499878,0.0100098,0.1099854,0,0.1599731   c-0.0300293,0.2200317,0.0400391,0.4300537,0.1899414,0.5900269c0.1401367,0.1599731,0.3500977,0.25,0.5600586,0.25   c2.4299316,0,4.4099121,1.9799805,4.4099121,4.4099731c0,0.3000488-0.0299072,0.6000366-0.0898438,0.8800049H6.2199707   C6.3699951,15.3399963,8.289917,13.5099792,10.6199951,13.5099792z M16.6979275,42.8479538   c-0.5192795,0.5193825-1.3236628,0.452301-1.7758608,0c-0.4859428-0.4859428-0.5027142-1.2733498,0-1.7759628   c0.5025101-0.5027161,1.3066893-0.4691734,1.7758608,0C17.2006416,41.574604,17.1838722,42.362011,16.6979275,42.8479538z    M37.0891838,42.8459167c-0.4814644,0.4812546-1.2774086,0.501236-1.7784271,0   c-0.4834938-0.4834938-0.4994087-1.2793427,0-1.7785339c0.4698524-0.4698486,1.3087807-0.4698486,1.7784271,0   C37.592308,41.5702896,37.5689468,42.3661537,37.0891838,42.8459167z M43.1400146,39.519989   c-0.1899414,0.9799805-1.0500488,1.6900024-2.0500488,1.6900024h-0.3599854   c-0.3599854-2.1900024-2.25-3.8599854-4.5299072-3.8599854c-2.2900391,0-4.1800537,1.6699829-4.5400391,3.8599854H20.3399658   c-0.3499756-2.1900024-2.2399902-3.8599854-4.5300293-3.8599854c-2.289917,0-4.1699219,1.6699829-4.5299072,3.8599854h-0.3699951   c-0.9899902,0-1.8601074-0.710022-2.0400391-1.6900024L5.7399902,23.3000183h40.5300293L43.1400146,39.519989z"/><path d="M18.3233643,28.8916931h14.0131836c0.4140625,0,0.75-0.3359375,0.75-0.75s-0.3359375-0.75-0.75-0.75H18.3233643   c-0.4140625,0-0.75,0.3359375-0.75,0.75S17.9093018,28.8916931,18.3233643,28.8916931z"/><path d="M29.5743408,32.2950134h-8.4887695c-0.4140625,0-0.75,0.3359375-0.75,0.75s0.3359375,0.75,0.75,0.75h8.4887695   c0.4140625,0,0.75-0.3359375,0.75-0.75S29.9884033,32.2950134,29.5743408,32.2950134z"/></g></svg>