<?xml version="1.0"?><svg xmlns="http://www.w3.org/2000/svg" xmlns:xlink="http://www.w3.org/1999/xlink" version="1.1" id="Layer_1" viewBox="0 0 52 52" style="enable-background:new 0 0 52 52;" xml:space="preserve"><g><path d="M48.25,18.0078125c0.9648438,0,1.75-0.7851563,1.75-1.75v-4.3027344c0-0.9648438-0.7851563-1.75-1.75-1.75h-0.7885742   V8.2568359c0-0.9648438-0.7851563-1.75-1.75-1.75h-1.3789063V4.5595703c0-0.9648438-0.7851563-1.75-1.75-1.75H37.5   c-0.9648438,0-1.75,0.7851563-1.75,1.75v1.9472656h-1.3789063c-0.9648438,0-1.75,0.7851563-1.75,1.75v1.9482422H19.3789063   V8.2568359c0-0.9648438-0.7851563-1.75-1.75-1.75H16.25V4.5595703c0-0.9648438-0.7851563-1.75-1.75-1.75H9.4169922   c-0.9648438,0-1.75,0.7851563-1.75,1.75v1.9472656H6.2880859c-0.9648438,0-1.75,0.7851563-1.75,1.75v1.9482422H3.75   c-0.9648438,0-1.75,0.7851563-1.75,1.75v4.3027344c0,0.9648438,0.7851563,1.75,1.75,1.75h0.9648438v23.3789063H3.75   c-0.9648438,0-1.75,0.7851563-1.75,1.75v4.1582031c0,1.0449219,0.8500977,1.8955078,1.8955078,1.8955078h44.2084961   C49.1494141,49.1904297,50,48.3398438,50,47.2949219v-4.1582031c0-0.9648438-0.7851563-1.75-1.75-1.75h-1.1650391V18.0078125H48.25   z M37.25,4.5595703c0-0.1376953,0.1123047-0.25,0.25-0.25h5.0825195c0.1376953,0,0.25,0.1123047,0.25,0.25v1.9472656H37.25   V4.5595703z M34.1210938,8.2568359c0-0.1376953,0.1123047-0.25,0.25-0.25c4.1389046,0,9.0565414,0,11.340332,0   c0.1376953,0,0.25,0.1123047,0.25,0.25v1.9482422h-11.840332V8.2568359z M9.1669922,4.5595703   c0-0.1376953,0.1123047-0.25,0.25-0.25H14.5c0.1376953,0,0.25,0.1123047,0.25,0.25v1.9472656H9.1669922V4.5595703z    M6.2880859,8.0068359c0.1868014,0,12.144804,0,11.3408203,0c0.1376953,0,0.25,0.1123047,0.25,0.25v1.9482422H6.0380859   C6.1189804,8.6216545,5.8504658,8.0068359,6.2880859,8.0068359z M3.5,16.2578125v-4.3027344c0-0.1376953,0.1123047-0.25,0.25-0.25   c30.315052,0,14.087513,0,44.5,0c0.1376953,0,0.25,0.1123047,0.25,0.25v4.3027344c0,0.1376953-0.1123047,0.25-0.25,0.25   c-12.5582199,0-21.381897,0-44.5,0C3.6123047,16.5078125,3.5,16.3955078,3.5,16.2578125z M14.2431641,41.3867188V18.0078125   h23.3134766v23.3789063H14.2431641z M6.2148438,18.0078125h6.5283203v23.3789063H6.2148438V18.0078125z M48.5,43.1367188v4.1582031   c0,0.2177734-0.1777344,0.3955078-0.3959961,0.3955078H3.8955078C3.6772461,47.6904297,3.5,47.5126953,3.5,47.2949219v-4.1582031   c0-0.1376953,0.1123047-0.25,0.25-0.25c9.4584122,0,23.501255,0,42.5849609,0H48.25   C48.3876953,42.8867188,48.5,42.9990234,48.5,43.1367188z M45.5849609,41.3867188h-6.5283203V18.0078125h6.5283203V41.3867188z"/><path d="M40.7978516,30.4472656h0.9467773v0.9472656c0,0.4140625,0.3359375,0.75,0.75,0.75s0.75-0.3359375,0.75-0.75v-0.9472656   h0.9467773c0.4140625,0,0.75-0.3359375,0.75-0.75s-0.3359375-0.75-0.75-0.75h-0.9467773v-0.9462891   c0-0.4140625-0.3359375-0.75-0.75-0.75s-0.75,0.3359375-0.75,0.75v0.9462891h-0.9467773c-0.4140625,0-0.75,0.3359375-0.75,0.75   S40.3837891,30.4472656,40.7978516,30.4472656z"/><path d="M10.7324219,28.9472656H8.1791992c-0.4140625,0-0.75,0.3359375-0.75,0.75s0.3359375,0.75,0.75,0.75h2.5532227   c0.4140625,0,0.75-0.3359375,0.75-0.75S11.1464844,28.9472656,10.7324219,28.9472656z"/><path d="M30.4697266,27.7294922c-0.2543945-0.4677734-0.7426758-0.7578125-1.2749023-0.7578125h-1.1425781l0.9130859-2.8300781   c0.1914063-0.5898438,0.0913086-1.2167969-0.2739258-1.7197266c-0.3657227-0.5019531-0.9316406-0.7900391-1.5527344-0.7900391   h-2.0268555c-0.8071289,0-1.5332031,0.5097656-1.8066406,1.2695313l-2.0761719,5.7685547   c-0.1787109,0.4960938-0.1044922,1.0507813,0.1992188,1.4824219c0.3032227,0.4316406,0.7998047,0.6894531,1.3271484,0.6894531   h1.2885742l-0.246582,4.5039063c-0.0297852,0.5429688,0.2978516,1.0214844,0.8154297,1.1904297   c0.1245117,0.0400391,0.2509766,0.0595703,0.3754883,0.0595703c0.3911133,0,0.7602539-0.1943359,0.9853516-0.5410156   l4.4389648-6.8427734C30.7021484,28.765625,30.7241211,28.1972656,30.4697266,27.7294922z M25.3598633,34.2441406   l0.2250977-4.1113281c0.0112305-0.2060547-0.0629883-0.4072266-0.2045898-0.5566406s-0.3383789-0.234375-0.5444336-0.234375   h-2.0805664c-0.0419922,0-0.0756836-0.0175781-0.1000977-0.0517578c-0.0244141-0.0351563-0.0292969-0.0722656-0.0151367-0.1123047   l2.0761719-5.7685547c0.0600586-0.1660156,0.21875-0.2773438,0.3955078-0.2773438h2.0268555   c0.1860352,0,0.2924805,0.1083984,0.3393555,0.1728516c0.0473633,0.0644531,0.1171875,0.1992188,0.0600586,0.3759766   l-1.2299805,3.8105469c-0.0737305,0.2285156-0.0336914,0.4775391,0.1074219,0.671875s0.3666992,0.3085938,0.6064453,0.3085938   l2.1318359-0.0751953L25.3598633,34.2441406z"/></g></svg>